<svg id="Calque_1" data-name="Calque 1" xmlns="http://www.w3.org/2000/svg" viewBox="0 0 60 60"><defs><style>.cls-1{fill:#fff;}</style></defs><title>solveit</title><path class="cls-1" d="M34,14.14a12.43,12.43,0,1,0-3.42,17.24A12.43,12.43,0,0,0,34,14.14ZM14.65,15.37a32.63,32.63,0,0,0,0,11.69C11.06,21.67,14.65,15.37,14.65,15.37Z"/><path class="cls-1" d="M30,0A30,30,0,1,0,60,30,30,30,0,0,0,30,0ZM11.07,29.46a15.13,15.13,0,1,1,21,4.17A15.12,15.12,0,0,1,11.07,29.46Zm33.61,23a4.31,4.31,0,0,1-6-1.19L30.22,37a14.42,14.42,0,0,0,3.05-1.56,15.08,15.08,0,0,0,2.6-2.22l10,13.3A4.31,4.31,0,0,1,44.68,52.49Z"/></svg>