<svg xmlns="http://www.w3.org/2000/svg" viewBox="0 0 622.61 467.77"><defs><style>.cls-1{fill:#3a3a3a;}.cls-2{fill:#232323;}.cls-3{fill:#c9c3c1;}.cls-4{fill:#3a3837;}.cls-5{fill:#f7f6f5;}.cls-6{fill:#282828;}.cls-7{fill:#a5a5a5;}.cls-8{fill:#c4c4c4;}.cls-9{fill:#7c7975;}.cls-10{fill:#b2b2b2;}.cls-11{fill:#9b9b9b;}.cls-12{fill:#b7b7b7;}.cls-13{fill:#969696;}.cls-14{fill:#d1d1d1;}.cls-15{fill:#bababa;}.cls-16{fill:#cecece;}.cls-17{fill:#8c8c8c;}.cls-18{fill:#848484;}.cls-19{fill:#c9c9c9;}.cls-20{fill:#8e8d8b;}.cls-21{fill:#595857;}.cls-22{fill:#f93d3d;}.cls-23{fill:#ffb912;}.cls-24{fill:#60aaf4;}.cls-25{fill:#fc4949;}.cls-26{fill:#89c9e5;}.cls-27{fill:#424242;}.cls-28{fill:#e0e0e0;}.cls-29{fill:#ff7b7b;}.cls-30{fill:#ff8d40;}.cls-31{fill:#4382ff;}.cls-32{fill:#ff9b57;}.cls-33{fill:#8475d3;}.cls-34{fill:#d3d3d3;}.cls-35{fill:#c1c1c1;}.cls-36{fill:#fff;}.cls-37{fill:#e5e5e5;}.cls-38{fill:#d8d8d8;}.cls-39{fill:#515151;}.cls-40{fill:#e8e8e8;}.cls-41{fill:#ff9e97;}.cls-42{fill:#6bdd99;}.cls-43{fill:#ff9e6e;}.cls-44{fill:#7fc9d3;}</style></defs><title>Illustration-Home</title><g id="computer"><g id="model"><path class="cls-1" d="M601.84,383H39V22c0-3.85,8.15-12,12-12H590.84c11,0,11,8.34,11,10Z" transform="translate(-9.69 -9.99)"/><path class="cls-2" d="M36.3,6.77H572.38a7,7,0,0,1,7,7V373a0,0,0,0,1,0,0H29.3a0,0,0,0,1,0,0V13.77a7,7,0,0,1,7-7Z"/><path class="cls-3" d="M45.14,18h519a4,4,0,0,1,4,4V328a0,0,0,0,1,0,0h-527a0,0,0,0,1,0,0V22A4,4,0,0,1,45.14,18Z"/></g><g id="screen"><rect class="cls-4" x="66" y="39.17" width="465.6" height="257.11" rx="4"/><rect class="cls-5" x="70.32" y="69.42" width="456.96" height="222.54" rx="4"/><path class="cls-6" d="M74.32,54.3h449a4,4,0,0,1,4,4V73.74a0,0,0,0,1,0,0h-457a0,0,0,0,1,0,0V58.3A4,4,0,0,1,74.32,54.3Z"/><rect class="cls-7" x="75.72" y="79.45" width="63.69" height="6.92" rx="2.5"/><rect class="cls-8" x="100.64" y="90.52" width="56.77" height="6.92" rx="2.5"/><rect class="cls-9" x="70.32" y="43.49" width="49.69" height="5.4" rx="2.5"/><rect class="cls-9" x="124.33" y="43.49" width="28.09" height="5.4" rx="2.5"/><rect class="cls-10" x="258.36" y="183.43" width="43.13" height="6.92" rx="2.5"/><rect class="cls-10" x="157.82" y="183.43" width="58.33" height="6.92" rx="2.5"/><rect class="cls-10" x="219.4" y="183.43" width="35.65" height="6.92" rx="2.5"/><rect class="cls-10" x="167.52" y="204.22" width="43.13" height="6.92" rx="2.5" transform="translate(368.47 405.37) rotate(180)"/><rect class="cls-11" x="213.97" y="204.22" width="58.33" height="6.92" rx="2.5" transform="translate(476.57 405.37) rotate(180)"/><rect class="cls-12" x="275.54" y="204.22" width="35.65" height="6.92" rx="2.5" transform="translate(577.04 405.37) rotate(180)"/><rect class="cls-10" x="258.36" y="206.11" width="43.13" height="6.92" rx="2.5"/><rect class="cls-13" x="157.82" y="206.11" width="97.22" height="6.92" rx="2.5"/><rect class="cls-10" x="167.52" y="226.91" width="43.13" height="6.92" rx="2.5" transform="translate(368.47 450.75) rotate(180)"/><rect class="cls-14" x="213.97" y="226.91" width="20.53" height="6.92" rx="2.5" transform="translate(438.76 450.75) rotate(180)"/><rect class="cls-14" x="238.81" y="226.91" width="36.73" height="6.92" rx="2.5" transform="translate(504.66 450.75) rotate(180)"/><rect class="cls-15" x="279.86" y="226.91" width="31.33" height="6.92" rx="2.5" transform="translate(581.36 450.75) rotate(180)"/><rect class="cls-10" x="258.36" y="234.2" width="43.13" height="6.92" rx="2.5"/><rect class="cls-11" x="157.82" y="234.2" width="97.22" height="6.92" rx="2.5"/><rect class="cls-16" x="167.52" y="254.99" width="43.13" height="6.92" rx="2.5" transform="translate(368.47 506.92) rotate(180)"/><rect class="cls-17" x="213.97" y="254.99" width="65.9" height="6.92" rx="2.5" transform="translate(484.14 506.92) rotate(180)"/><rect class="cls-17" x="284.18" y="254.99" width="27.01" height="6.92" rx="2.5" transform="translate(585.68 506.92) rotate(180)"/><rect class="cls-10" x="258.36" y="256.89" width="43.13" height="6.92" rx="2.5"/><rect class="cls-10" x="157.82" y="256.89" width="38.89" height="6.92" rx="2.5"/><rect class="cls-18" x="199.95" y="256.89" width="55.09" height="6.92" rx="2.5"/><rect class="cls-10" x="167.52" y="277.68" width="43.13" height="6.92" rx="2.5" transform="translate(368.47 552.29) rotate(180)"/><rect class="cls-19" x="213.97" y="277.68" width="97.22" height="6.92" rx="2.5" transform="translate(515.46 552.29) rotate(180)"/><rect class="cls-10" x="318.75" y="277.68" width="43.13" height="6.92" rx="2.5" transform="translate(670.95 552.29) rotate(-180)"/><rect class="cls-10" x="404.1" y="277.68" width="58.33" height="6.92" rx="2.5" transform="translate(856.83 552.29) rotate(-180)"/><rect class="cls-10" x="365.21" y="277.68" width="35.65" height="6.92" rx="2.5" transform="translate(756.37 552.29) rotate(-180)"/><rect class="cls-10" x="409.6" y="256.89" width="43.13" height="6.92" rx="2.5"/><rect class="cls-11" x="347.95" y="256.89" width="58.33" height="6.92" rx="2.5"/><rect class="cls-12" x="309.06" y="256.89" width="35.65" height="6.92" rx="2.5"/><rect class="cls-10" x="318.75" y="254.99" width="43.13" height="6.92" rx="2.5" transform="translate(670.95 506.92) rotate(-180)"/><rect class="cls-13" x="365.21" y="254.99" width="97.22" height="6.92" rx="2.5" transform="translate(817.94 506.92) rotate(-180)"/><rect class="cls-10" x="409.6" y="234.2" width="43.13" height="6.92" rx="2.5"/><rect class="cls-14" x="385.76" y="234.2" width="20.53" height="6.92" rx="2.5"/><rect class="cls-14" x="344.71" y="234.2" width="36.73" height="6.92" rx="2.5"/><rect class="cls-15" x="309.06" y="234.2" width="31.33" height="6.92" rx="2.5"/><rect class="cls-10" x="318.75" y="226.91" width="43.13" height="6.92" rx="2.5" transform="translate(670.95 450.75) rotate(-180)"/><rect class="cls-11" x="365.21" y="226.91" width="97.22" height="6.92" rx="2.5" transform="translate(817.94 450.75) rotate(-180)"/><rect class="cls-16" x="409.6" y="206.11" width="43.13" height="6.92" rx="2.5"/><rect class="cls-17" x="340.39" y="206.11" width="65.9" height="6.92" rx="2.5"/><rect class="cls-17" x="309.06" y="206.11" width="27.01" height="6.92" rx="2.5"/><rect class="cls-10" x="318.75" y="204.22" width="43.13" height="6.92" rx="2.5" transform="translate(670.95 405.37) rotate(-180)"/><rect class="cls-10" x="423.54" y="204.22" width="38.89" height="6.92" rx="2.5" transform="translate(876.28 405.37) rotate(-180)"/><rect class="cls-18" x="365.21" y="204.22" width="55.09" height="6.92" rx="2.5" transform="translate(775.81 405.37) rotate(-180)"/><rect class="cls-10" x="409.6" y="183.43" width="43.13" height="6.92" rx="2.5"/><rect class="cls-19" x="309.06" y="183.43" width="97.22" height="6.92" rx="2.5"/><circle class="cls-20" cx="164.33" cy="80.83" r="2.77"/><circle class="cls-21" cx="164.33" cy="94.68" r="2.77"/><circle class="cls-20" cx="171.26" cy="87.76" r="2.77"/><circle class="cls-22" cx="522.41" cy="46.2" r="4.86"/><circle class="cls-23" cx="509.45" cy="46.2" r="4.86"/><circle class="cls-24" cx="496.49" cy="46.2" r="4.86"/><circle class="cls-25" cx="444.09" cy="87.79" r="9.72"/><rect class="cls-13" x="459.22" y="84.55" width="45.37" height="6.48" rx="3"/><rect class="cls-15" x="197.79" y="84.55" width="34.57" height="6.48" rx="3"/><rect class="cls-15" x="326.34" y="84.55" width="42.13" height="6.48" rx="3"/><rect class="cls-15" x="384.68" y="84.55" width="25.93" height="6.48" rx="3"/><rect class="cls-15" x="288.53" y="84.55" width="22.69" height="6.48" rx="3"/><rect class="cls-15" x="246.4" y="84.55" width="39.97" height="6.48" rx="3"/><rect class="cls-26" x="154.58" y="108.31" width="301.4" height="64.82"/><rect class="cls-27" x="78.96" y="57.54" width="11.88" height="11.88"/><rect class="cls-27" x="102.53" y="57.54" width="11.88" height="11.88"/><rect class="cls-27" x="126.1" y="57.54" width="11.88" height="11.88"/><rect class="cls-27" x="149.67" y="57.54" width="11.88" height="11.88"/><rect class="cls-27" x="173.24" y="57.54" width="11.88" height="11.88"/><rect class="cls-27" x="196.81" y="57.54" width="11.88" height="11.88"/><rect class="cls-27" x="220.38" y="57.54" width="11.88" height="11.88"/><rect class="cls-27" x="243.95" y="57.54" width="11.88" height="11.88"/><rect class="cls-27" x="267.52" y="57.54" width="11.88" height="11.88"/><rect class="cls-27" x="291.09" y="57.54" width="11.88" height="11.88"/><rect class="cls-27" x="314.66" y="57.54" width="11.88" height="11.88"/><rect class="cls-27" x="338.23" y="57.54" width="11.88" height="11.88"/><rect class="cls-27" x="427.89" y="57.54" width="95.06" height="11.88" rx="5"/><path class="cls-28" d="M43.31,309.24H565a0,0,0,0,1,0,0V324a9,9,0,0,1-9,9H52.31a9,9,0,0,1-9-9V309.24a0,0,0,0,1,0,0Z"/><rect class="cls-29" x="153.59" y="312.75" width="16.58" height="16.58" rx="2"/><rect class="cls-30" x="177.27" y="312.83" width="16.58" height="16.58" rx="2"/><rect class="cls-31" x="130.08" y="312.83" width="16.58" height="16.58" rx="2"/><rect class="cls-32" x="201.21" y="312.83" width="16.58" height="16.58" rx="2"/><rect class="cls-33" x="225.15" y="312.83" width="16.58" height="16.58" rx="2"/></g></g><g id="mobile"><g id="model-2" data-name="model"><path class="cls-34" d="M12,239.3H123.22a9,9,0,0,1,9,9V458.77a9,9,0,0,1-9,9H12a12,12,0,0,1-12-12V251.3a12,12,0,0,1,12-12Z"/><rect class="cls-35" x="0.22" y="241.77" width="127" height="226" rx="9"/><rect class="cls-36" x="3" y="258.77" width="121.44" height="175" rx="9"/><circle class="cls-37" cx="63.72" cy="455.27" r="9.5"/><rect class="cls-37" x="44.22" y="244.77" width="38" height="6" rx="3"/></g><g id="screen-2" data-name="screen"><rect class="cls-38" x="60.13" y="284.77" width="11.68" height="2" rx="1"/><rect class="cls-38" x="60.13" y="280.77" width="11.68" height="2" rx="1"/><rect class="cls-38" x="60.13" y="276.77" width="11.68" height="2" rx="1"/><path class="cls-39" d="M5,254H122.44a2,2,0,0,1,2,2v10.75a0,0,0,0,1,0,0H3a0,0,0,0,1,0,0V256a2,2,0,0,1,2-2Z"/><rect class="cls-1" x="93.22" y="257.77" width="25" height="6" rx="2"/><rect class="cls-1" x="9.22" y="257.77" width="36" height="6" rx="2"/><path class="cls-40" d="M3,423.77H124.44a0,0,0,0,1,0,0V440.2a2,2,0,0,1-2,2H5a2,2,0,0,1-2-2V423.77a0,0,0,0,1,0,0Z"/><rect class="cls-41" x="14.34" y="426.48" width="13" height="13" rx="2"/><rect class="cls-29" x="36.09" y="426.48" width="13" height="13" rx="2"/><rect class="cls-42" x="101.34" y="426.48" width="13" height="13" rx="2"/><rect class="cls-43" x="57.97" y="426.48" width="13" height="13" rx="2"/><rect class="cls-44" x="79.84" y="426.48" width="13" height="13" rx="2"/></g></g><g id="tablet"><g id="model-3" data-name="model"><path class="cls-34" d="M273.22,216.77H612.61a10,10,0,0,1,10,10v231a9,9,0,0,1-9,9H271.22a11,11,0,0,1-11-11v-226A13,13,0,0,1,273.22,216.77Z"/><rect class="cls-35" x="260.22" y="220.77" width="356" height="246" rx="9"/><rect class="cls-5" x="267.12" y="234.77" width="322.89" height="224" rx="9"/><circle class="cls-34" cx="603.72" cy="343.27" r="9.5"/><rect class="cls-34" x="599.22" y="282.64" width="8" height="44.12" rx="4"/><rect class="cls-34" x="599.22" y="359.77" width="8" height="44.12" rx="4"/></g><g id="screen-3" data-name="screen"><path class="cls-39" d="M276.22,228.77h305a9,9,0,0,1,9,9v5a0,0,0,0,1,0,0h-323a0,0,0,0,1,0,0v-5A9,9,0,0,1,276.22,228.77Z"/><rect class="cls-1" x="278.22" y="232.77" width="31" height="7" rx="2"/><rect class="cls-1" x="314.22" y="232.77" width="22" height="7" rx="2"/><rect class="cls-1" x="542.22" y="232.77" width="37" height="7" rx="2"/></g></g></svg>