<svg xmlns="http://www.w3.org/2000/svg" viewBox="0 0 50 50"><defs><style>.cls-1{fill:#ef7d30;}.cls-2{fill:#db612c;}.cls-3,.cls-5{fill:#fff;}.cls-4{fill:none;}.cls-5{font-size:7px;font-family:Montserrat-Black, Montserrat;font-weight:800;}</style></defs><title>topic_icons</title><g id="Html5"><path class="cls-1" d="M25.07,48a1.39,1.39,0,0,1-.75-.21L5.67,37.07a1.5,1.5,0,0,1-.75-1.3V14.23a1.5,1.5,0,0,1,.75-1.3L24.32,2.17A1.39,1.39,0,0,1,25.07,2a1.44,1.44,0,0,1,.75.21L44.47,12.93a1.52,1.52,0,0,1,.75,1.3V35.77a1.52,1.52,0,0,1-.75,1.3L25.82,47.83A1.44,1.44,0,0,1,25.07,48Z"/><path class="cls-2" d="M25.07,3.46h0L43.72,14.23V35.77L25.07,46.54,6.42,35.77V14.23L25.07,3.46m0-3a3,3,0,0,0-1.5.41L4.92,11.63a3,3,0,0,0-1.5,2.6V35.77a3,3,0,0,0,1.5,2.6L23.57,49.13a3,3,0,0,0,1.5.41,3,3,0,0,0,1.5-.41L45.22,38.37a3,3,0,0,0,1.5-2.6V14.23a3,3,0,0,0-1.5-2.6L26.57.87a3,3,0,0,0-1.5-.41Z"/><path class="cls-3" d="M25.47,40.57l-.88-.26-7.29-2c-.12,0-.15-.08-.16-.2C17.09,37.41,17,36.72,17,36l-.15-1.71c-.06-.69-.13-1.38-.19-2.07l-.12-1.38c-.05-.59-.11-1.19-.16-1.79l-.15-1.69c-.05-.59-.11-1.19-.16-1.78l-.15-1.71c-.05-.59-.11-1.17-.16-1.76l-.12-1.39c0-.59-.11-1.18-.16-1.77s-.09-1-.13-1.56H35.69c0,.2,0,.4,0,.59,0,.61-.11,1.22-.16,1.82s-.13,1.36-.19,2.05l-.15,1.75c0,.57-.11,1.14-.16,1.72l-.15,1.72c-.05.58-.1,1.16-.16,1.73l-.12,1.42c-.05.58-.11,1.16-.16,1.75l-.12,1.38c-.05.6-.11,1.19-.16,1.78L34,36.86c0,.44-.07.87-.12,1.31,0,0-.07.09-.12.1L32,38.76l-6.35,1.76-.12,0ZM21.9,24.24h9.56c.22,0,.22,0,.24-.21.07-.72.13-1.44.2-2.16,0-.23,0-.23-.22-.23H19.25c-.18,0-.18,0-.17.19.07.66.13,1.33.19,2l.21,2.35.27,3.07c0,.11.06.14.17.14l5.88,0h2.69c.11,0,.14,0,.13.14s0,.22,0,.34c-.09.88-.17,1.77-.25,2.65a.19.19,0,0,1-.17.21l-2.56.68a.45.45,0,0,1-.23,0l-2.58-.69a.19.19,0,0,1-.17-.2c0-.58-.09-1.16-.14-1.73,0-.12,0-.16-.17-.16-.76,0-1.52,0-2.27,0-.14,0-.17,0-.16.17.06.55.1,1.11.15,1.67s.13,1.36.19,2c0,.12,0,.17.16.2l5,1.39a.41.41,0,0,0,.22,0l2-.56,2.95-.82c.09,0,.16,0,.16-.18,0-.32.06-.65.09-1,0-.49.09-1,.13-1.46l.12-1.36c.05-.49.09-1,.14-1.47l.09-1.06.12-1.32s-.05-.08-.08-.09a.32.32,0,0,0-.14,0H22.13Z"/><path class="cls-4" d="M21.9,24.24l.23,2.59h9.09a.32.32,0,0,1,.14,0s.08.06.08.09l-.12,1.32-.09,1.06c-.05.49-.09,1-.14,1.47L31,32.13c0,.48-.09,1-.13,1.46,0,.33-.07.66-.09,1,0,.13-.07.15-.16.18l-2.95.82-2,.56a.41.41,0,0,1-.22,0l-5-1.39c-.12,0-.15-.08-.16-.2-.06-.68-.12-1.36-.19-2s-.09-1.12-.15-1.67c0-.13,0-.17.16-.17.75,0,1.51,0,2.27,0,.12,0,.16,0,.17.16.05.57.1,1.15.14,1.73a.19.19,0,0,0,.17.2l2.58.69a.45.45,0,0,0,.23,0l2.56-.68a.19.19,0,0,0,.17-.21c.08-.88.16-1.77.25-2.65,0-.12,0-.23,0-.34s0-.14-.13-.14H25.8l-5.88,0c-.11,0-.16,0-.17-.14l-.27-3.07-.21-2.35c-.06-.67-.12-1.34-.19-2,0-.18,0-.18.17-.19H31.68c.24,0,.24,0,.22.23-.07.72-.13,1.44-.2,2.16,0,.21,0,.21-.24.21H21.9Z"/><text class="cls-5" transform="translate(16.31 15.68) scale(0.85 1)">HTML</text></g></svg>