<svg xmlns="http://www.w3.org/2000/svg" viewBox="0 0 50 50"><defs><style>.cls-1{fill:#419ed8;}.cls-2{fill:#338ab5;}.cls-3{fill:#fff;}</style></defs><title>topic_icons</title><g id="Css"><path class="cls-1" d="M25.07,48a1.39,1.39,0,0,1-.75-.21L5.67,37.07a1.5,1.5,0,0,1-.75-1.3V14.23a1.5,1.5,0,0,1,.75-1.3L24.32,2.17A1.39,1.39,0,0,1,25.07,2a1.44,1.44,0,0,1,.75.21L44.47,12.93a1.52,1.52,0,0,1,.75,1.3V35.77a1.52,1.52,0,0,1-.75,1.3L25.82,47.83A1.44,1.44,0,0,1,25.07,48Z"/><path class="cls-2" d="M25.07,3.46h0L43.72,14.23V35.77L25.07,46.54,6.42,35.77V14.23L25.07,3.46m0-3a3,3,0,0,0-1.5.41L4.92,11.63a3,3,0,0,0-1.5,2.6V35.77a3,3,0,0,0,1.5,2.6L23.57,49.13a3,3,0,0,0,1.5.41,3,3,0,0,0,1.5-.41L45.22,38.37a3,3,0,0,0,1.5-2.6V14.23a3,3,0,0,0-1.5-2.6L26.57.87a3,3,0,0,0-1.5-.41Z"/><path class="cls-3" d="M14.81,17.43l1.83,20.85L25,40.57l8.33-2.31,1.86-20.83ZM30.2,34.73,25,36.16l-5.26-1.47-.37-4H22l.18,2,2.87.75,2.81-.75.3-3.3H19.26L19,26.87h9.28l.23-2.6H18.83l-.23-2.56H31.37Z"/><path class="cls-3" d="M20.21,15.46a2.22,2.22,0,0,1-.83-.91,3.08,3.08,0,0,1,0-2.65,2.29,2.29,0,0,1,.83-.91,2.2,2.2,0,0,1,1.19-.33,2.24,2.24,0,0,1,1.08.26,2.09,2.09,0,0,1,.79.72l-.89.93a1.1,1.1,0,0,0-.91-.57.88.88,0,0,0-.71.33,1.4,1.4,0,0,0-.26.9,1.37,1.37,0,0,0,.26.89.88.88,0,0,0,.71.33,1.1,1.1,0,0,0,.91-.57l.89.93a2.12,2.12,0,0,1-.79.73,2.36,2.36,0,0,1-1.08.25A2.2,2.2,0,0,1,20.21,15.46Z"/><path class="cls-3" d="M24.16,15.65a2.34,2.34,0,0,1-.81-.37l.45-1.2a2.79,2.79,0,0,0,.67.33,2.3,2.3,0,0,0,.71.12.84.84,0,0,0,.41-.07.2.2,0,0,0,.13-.2.24.24,0,0,0-.16-.23,3.19,3.19,0,0,0-.54-.17,6.1,6.1,0,0,1-.81-.25,1.31,1.31,0,0,1-.55-.45,1.35,1.35,0,0,1-.24-.84,1.6,1.6,0,0,1,.22-.84,1.46,1.46,0,0,1,.65-.6,2.49,2.49,0,0,1,1.07-.22,3.46,3.46,0,0,1,.84.11,2.42,2.42,0,0,1,.73.32l-.43,1.2a2.28,2.28,0,0,0-1.16-.37c-.36,0-.54.11-.54.31a.24.24,0,0,0,.16.22,3.55,3.55,0,0,0,.53.16,5,5,0,0,1,.81.24,1.5,1.5,0,0,1,.57.45,1.31,1.31,0,0,1,.24.84,1.69,1.69,0,0,1-.22.83,1.61,1.61,0,0,1-.66.6,2.44,2.44,0,0,1-1.06.22A3.79,3.79,0,0,1,24.16,15.65Z"/><path class="cls-3" d="M28.07,15.65a2.34,2.34,0,0,1-.81-.37l.45-1.2a2.79,2.79,0,0,0,.67.33,2.3,2.3,0,0,0,.71.12.84.84,0,0,0,.41-.07.2.2,0,0,0,.13-.2.26.26,0,0,0-.16-.23,3.19,3.19,0,0,0-.54-.17,6.1,6.1,0,0,1-.81-.25,1.4,1.4,0,0,1-.56-.45,1.42,1.42,0,0,1-.23-.84,1.6,1.6,0,0,1,.22-.84,1.46,1.46,0,0,1,.65-.6,2.49,2.49,0,0,1,1.07-.22,3.46,3.46,0,0,1,.84.11,2.42,2.42,0,0,1,.73.32l-.43,1.2a2.28,2.28,0,0,0-1.16-.37c-.36,0-.54.11-.54.31a.24.24,0,0,0,.16.22,3.55,3.55,0,0,0,.53.16,5,5,0,0,1,.81.24,1.4,1.4,0,0,1,.56.45,1.26,1.26,0,0,1,.25.84,1.6,1.6,0,0,1-.23.83,1.52,1.52,0,0,1-.65.6,2.44,2.44,0,0,1-1.06.22A3.73,3.73,0,0,1,28.07,15.65Z"/></g></svg>