<svg xmlns="http://www.w3.org/2000/svg" viewBox="0 0 50 50"><defs><style>.cls-1{fill:#d32929;}.cls-2{fill:#ea2f2f;}.cls-3{fill:#fcfcfc;}</style></defs><title>topic_icons</title><g id="Java"><path class="cls-1" d="M25.07,48a1.39,1.39,0,0,1-.75-.21L5.67,37.07a1.5,1.5,0,0,1-.75-1.3V14.23a1.5,1.5,0,0,1,.75-1.3L24.32,2.17A1.39,1.39,0,0,1,25.07,2a1.44,1.44,0,0,1,.75.21L44.47,12.93a1.52,1.52,0,0,1,.75,1.3V35.77a1.52,1.52,0,0,1-.75,1.3L25.82,47.83A1.44,1.44,0,0,1,25.07,48Z"/><path class="cls-2" d="M25.07,3.46h0L43.72,14.23V35.77L25.07,46.54,6.42,35.77V14.23L25.07,3.46m0-3a3,3,0,0,0-1.5.41L4.92,11.63a3,3,0,0,0-1.5,2.6V35.77a3,3,0,0,0,1.5,2.6L23.57,49.13a3,3,0,0,0,1.5.41,3,3,0,0,0,1.5-.41L45.22,38.37a3,3,0,0,0,1.5-2.6V14.23a3,3,0,0,0-1.5-2.6L26.57.87a3,3,0,0,0-1.5-.41Z"/><path class="cls-3" d="M10.31,32.05a4.77,4.77,0,0,1-1.86-1.56l2.16-3a4.06,4.06,0,0,0,.93,1,1.59,1.59,0,0,0,1,.34,1.12,1.12,0,0,0,1-.44,2.13,2.13,0,0,0,.33-1.3V21.81h-4V18.25h8v8.6a6.42,6.42,0,0,1-1.25,4.3,4.6,4.6,0,0,1-3.66,1.43A5.94,5.94,0,0,1,10.31,32.05Z"/><path class="cls-3" d="M24,28H21.3l-.47,1.22h-2.4l3.06-7h2.32l3.06,7H24.43Zm-.65-1.7-.68-1.76L22,26.33Z"/><path class="cls-3" d="M34.34,22.25l-3,7H29.05l-3-7h2.54l1.67,4.09L32,22.25Z"/><path class="cls-3" d="M39.09,28H36.43L36,29.25h-2.4l3.06-7h2.32l3.06,7H39.56Zm-.65-1.7-.68-1.76-.68,1.76Z"/></g></svg>