<svg id="C_" data-name="C++" xmlns="http://www.w3.org/2000/svg" viewBox="0 0 50 50"><defs><style>.cls-1{fill:#3e91d6;}.cls-2{fill:#71b2ff;}.cls-3{fill:#fff;}</style></defs><title>topic_icons</title><path class="cls-1" d="M25.07,48a1.39,1.39,0,0,1-.75-.21L5.67,37.07a1.5,1.5,0,0,1-.75-1.3V14.23a1.5,1.5,0,0,1,.75-1.3L24.32,2.17A1.39,1.39,0,0,1,25.07,2a1.44,1.44,0,0,1,.75.21L44.47,12.93a1.52,1.52,0,0,1,.75,1.3V35.77a1.52,1.52,0,0,1-.75,1.3L25.82,47.83A1.44,1.44,0,0,1,25.07,48Z"/><path class="cls-2" d="M25.07,3.46h0L43.72,14.23V35.77L25.07,46.54,6.42,35.77V14.23L25.07,3.46m0-3a3,3,0,0,0-1.5.41L4.92,11.63a3,3,0,0,0-1.5,2.6V35.77a3,3,0,0,0,1.5,2.6L23.57,49.13a3,3,0,0,0,1.5.41,3,3,0,0,0,1.5-.41L45.22,38.37a3,3,0,0,0,1.5-2.6V14.23a3,3,0,0,0-1.5-2.6L26.57.87a3,3,0,0,0-1.5-.41Z"/><path class="cls-3" d="M14.43,33.68a9.94,9.94,0,0,1-4-3.7A10.24,10.24,0,0,1,9,24.58a10.19,10.19,0,0,1,1.44-5.4,10,10,0,0,1,4-3.71,12.16,12.16,0,0,1,5.7-1.32,12.41,12.41,0,0,1,5.18,1,9.61,9.61,0,0,1,3.76,3l-4.24,3.79a5.45,5.45,0,0,0-4.36-2.34,4.44,4.44,0,0,0-3.39,1.35,5.08,5.08,0,0,0-1.29,3.64,5,5,0,0,0,1.29,3.63,4.44,4.44,0,0,0,3.39,1.35,5.47,5.47,0,0,0,4.36-2.33L29.07,31a9.61,9.61,0,0,1-3.76,3,12.57,12.57,0,0,1-5.18,1A12.16,12.16,0,0,1,14.43,33.68Z"/><path class="cls-3" d="M33.21,25.58h-2v2H29v-2h-2v-2.1h2v-2h2.22v2h2Z"/><path class="cls-3" d="M41,25.58H39v2H36.73v-2h-2v-2.1h2v-2H39v2h2Z"/></svg>