<svg xmlns="http://www.w3.org/2000/svg" viewBox="0 0 50 50"><defs><style>.cls-1{fill:#419ed8;}.cls-2{fill:#338ab5;}.cls-3,.cls-4{fill:#fff;}.cls-4{font-size:7px;font-family:Montserrat-Black, Montserrat;font-weight:800;}.cls-5{letter-spacing:-0.01em;}</style></defs><title>topic_icons</title><g id="Css"><path class="cls-1" d="M25.07,48a1.39,1.39,0,0,1-.75-.21L5.67,37.07a1.5,1.5,0,0,1-.75-1.3V14.23a1.5,1.5,0,0,1,.75-1.3L24.32,2.17A1.39,1.39,0,0,1,25.07,2a1.44,1.44,0,0,1,.75.21L44.47,12.93a1.52,1.52,0,0,1,.75,1.3V35.77a1.52,1.52,0,0,1-.75,1.3L25.82,47.83A1.44,1.44,0,0,1,25.07,48Z"/><path class="cls-2" d="M25.07,3.46h0L43.72,14.23V35.77L25.07,46.54,6.42,35.77V14.23L25.07,3.46m0-3a3,3,0,0,0-1.5.41L4.92,11.63a3,3,0,0,0-1.5,2.6V35.77a3,3,0,0,0,1.5,2.6L23.57,49.13a3,3,0,0,0,1.5.41,3,3,0,0,0,1.5-.41L45.22,38.37a3,3,0,0,0,1.5-2.6V14.23a3,3,0,0,0-1.5-2.6L26.57.87a3,3,0,0,0-1.5-.41Z"/><path class="cls-3" d="M14.81,17.43l1.83,20.85L25,40.57l8.33-2.31,1.86-20.83ZM30.2,34.73,25,36.16l-5.26-1.47-.37-4H22l.18,2,2.87.75,2.81-.75.3-3.3H19.26L19,26.87h9.28l.23-2.6H18.83l-.23-2.56H31.37Z"/><text class="cls-4" transform="translate(18.91 15.68) scale(0.85 1)"><tspan class="cls-5">C</tspan><tspan x="5.14" y="0">SS</tspan></text></g></svg>