<svg xmlns="http://www.w3.org/2000/svg" viewBox="0 0 50 50"><defs><style>.cls-1{fill:#9d8fdb;}.cls-2{fill:#7b72b7;}.cls-3{fill:#fff;}</style></defs><title>topic_icons</title><g id="PHP"><path class="cls-1" d="M25,48a1.44,1.44,0,0,1-.75-.21L5.6,37.07a1.52,1.52,0,0,1-.75-1.3V14.23a1.52,1.52,0,0,1,.75-1.3L24.25,2.17a1.44,1.44,0,0,1,1.5,0L44.4,12.93a1.52,1.52,0,0,1,.75,1.3V35.77a1.52,1.52,0,0,1-.75,1.3L25.75,47.83A1.44,1.44,0,0,1,25,48Z"/><path class="cls-2" d="M25,3.46h0L43.65,14.23V35.77L25,46.54,6.35,35.77V14.23L25,3.46m0-3a3,3,0,0,0-1.5.41L4.85,11.63a3,3,0,0,0-1.5,2.6V35.77a3,3,0,0,0,1.5,2.6L23.5,49.13a2.95,2.95,0,0,0,3,0L45.15,38.37a3,3,0,0,0,1.5-2.6V14.23a3,3,0,0,0-1.5-2.6L26.5.87A3,3,0,0,0,25,.46Z"/><path class="cls-3" d="M19.28,21.42a3.32,3.32,0,0,1,1,2.56,4.75,4.75,0,0,1-.55,2.33,3.86,3.86,0,0,1-1.59,1.56,5,5,0,0,1-2.37.55H14.2L13.77,31h-3l1.79-10.5h4A3.92,3.92,0,0,1,19.28,21.42Zm-2.41,3.9a1.42,1.42,0,0,0,.34-1c0-.71-.37-1.06-1.12-1.06h-1l-.42,2.46H15.9A1.24,1.24,0,0,0,16.87,25.32Z"/><path class="cls-3" d="M29.16,19.86a3.11,3.11,0,0,1,.74,2.24,6.53,6.53,0,0,1-.09,1.07L29,28H25.92l.75-4.4c0-.26,0-.43,0-.53,0-.63-.26-.94-.77-.94-.73,0-1.19.55-1.38,1.66L23.85,28H20.78l2-11.87h3.07l-.64,3.79a3,3,0,0,1,1-.62,2.77,2.77,0,0,1,1-.21A2.55,2.55,0,0,1,29.16,19.86Z"/><path class="cls-3" d="M38.26,21.42a3.32,3.32,0,0,1,1,2.56,4.75,4.75,0,0,1-.56,2.33,3.83,3.83,0,0,1-1.58,1.56,5,5,0,0,1-2.38.55H33.18L32.75,31h-3l1.78-10.5h4A3.92,3.92,0,0,1,38.26,21.42Zm-2.41,3.9a1.42,1.42,0,0,0,.34-1c0-.71-.37-1.06-1.12-1.06h-1l-.42,2.46h1.24A1.26,1.26,0,0,0,35.85,25.32Z"/></g></svg>