<svg xmlns="http://www.w3.org/2000/svg" viewBox="0 0 50 50"><defs><style>.cls-1{fill:#9d8fdb;}.cls-2{fill:#7b72b7;}.cls-3{font-size:15px;fill:#fff;font-family:Montserrat-BlackItalic, Montserrat;font-weight:800;font-style:italic;letter-spacing:0.05em;}.cls-4{font-size:16px;letter-spacing:-0.05em;}.cls-5{letter-spacing:-0.05em;}</style></defs><title>topic_icons</title><g id="PHP"><path class="cls-1" d="M25,48a1.44,1.44,0,0,1-.75-.21L5.6,37.07a1.52,1.52,0,0,1-.75-1.3V14.23a1.52,1.52,0,0,1,.75-1.3L24.25,2.17a1.44,1.44,0,0,1,1.5,0L44.4,12.93a1.52,1.52,0,0,1,.75,1.3V35.77a1.52,1.52,0,0,1-.75,1.3L25.75,47.83A1.44,1.44,0,0,1,25,48Z"/><path class="cls-2" d="M25,3.46h0L43.65,14.23V35.77L25,46.54,6.35,35.77V14.23L25,3.46m0-3a3,3,0,0,0-1.5.41L4.85,11.63a3,3,0,0,0-1.5,2.6V35.77a3,3,0,0,0,1.5,2.6L23.5,49.13a2.95,2.95,0,0,0,3,0L45.15,38.37a3,3,0,0,0,1.5-2.6V14.23a3,3,0,0,0-1.5-2.6L26.5.87A3,3,0,0,0,25,.46Z"/><text class="cls-3" transform="translate(10.74 31) scale(0.85 1)">P<tspan class="cls-4" x="11.89" y="-3">h</tspan><tspan class="cls-5" x="22.33" y="0">P</tspan></text></g></svg>