<svg xmlns="http://www.w3.org/2000/svg" viewBox="0 0 50 50"><defs><style>.cls-1{fill:#41cd52;}.cls-2{fill:#5bd867;}.cls-3{fill:#fff;}</style></defs><title>topic_icons</title><g id="Qt"><circle class="cls-1" cx="25" cy="25" r="21"/><path class="cls-2" d="M25,5.5A19.5,19.5,0,1,1,5.5,25,19.53,19.53,0,0,1,25,5.5m0-3A22.5,22.5,0,1,0,47.5,25,22.5,22.5,0,0,0,25,2.5Z"/><path class="cls-3" d="M25.5,32.45a3.48,3.48,0,0,0,.95-.7l1.6,3A4.63,4.63,0,0,1,26.31,36a6.26,6.26,0,0,1-2.23.39,6,6,0,0,1-3.41-1,6.89,6.89,0,0,1-2.35-2.92,5.88,5.88,0,0,1-3.26-2.4,7.37,7.37,0,0,1-1.18-4.22A10.67,10.67,0,0,1,14.94,21a8.08,8.08,0,0,1,3-3.29,8,8,0,0,1,4.28-1.17,6.88,6.88,0,0,1,3.53.88A6,6,0,0,1,28,19.89a7.78,7.78,0,0,1,.82,3.61,11,11,0,0,1-.67,3.89,8.82,8.82,0,0,1-1.88,3,7.57,7.57,0,0,1-2.85,1.84,1.24,1.24,0,0,0,1,.45A2.3,2.3,0,0,0,25.5,32.45ZM20,21.44a4.08,4.08,0,0,0-1.2,1.73,6.7,6.7,0,0,0-.41,2.37,3.3,3.3,0,0,0,.69,2.19,2.32,2.32,0,0,0,1.89.81,2.78,2.78,0,0,0,1.83-.64A4.1,4.1,0,0,0,24,26.18a6.78,6.78,0,0,0,.41-2.37,3.27,3.27,0,0,0-.69-2.19,2.33,2.33,0,0,0-1.89-.82A2.78,2.78,0,0,0,20,21.44Z"/><path class="cls-3" d="M33.65,27.66c0,.18,0,.3,0,.35,0,.56.26.84.79.84a2,2,0,0,0,.94-.28l.49,3.36a5.07,5.07,0,0,1-2.79.71,3.75,3.75,0,0,1-2.75-1,3.66,3.66,0,0,1-1-2.77,7.14,7.14,0,0,1,.11-1.2l.53-3.05H28.5L29.12,21h1.41l.58-3.39h4.26L34.78,21h2.11l-.62,3.65H34.16Z"/></g></svg>