<svg xmlns="http://www.w3.org/2000/svg" viewBox="0 0 50 50"><defs><style>.cls-1{fill:#f4dd37;}.cls-2{fill:#ffe964;}.cls-3{fill:#191919;}</style></defs><title>topic_icons</title><g id="Js"><path class="cls-1" d="M25,48a1.44,1.44,0,0,1-.75-.21L5.6,37.07a1.52,1.52,0,0,1-.75-1.3V14.23a1.52,1.52,0,0,1,.75-1.3L24.25,2.17a1.44,1.44,0,0,1,1.5,0L44.4,12.93a1.52,1.52,0,0,1,.75,1.3V35.77a1.52,1.52,0,0,1-.75,1.3L25.75,47.83A1.44,1.44,0,0,1,25,48Z"/><path class="cls-2" d="M25,3.46h0L43.65,14.23V35.77L25,46.54,6.35,35.77V14.23L25,3.46m0-3a3,3,0,0,0-1.5.41L4.85,11.63a3,3,0,0,0-1.5,2.6V35.77a3,3,0,0,0,1.5,2.6L23.5,49.13a2.95,2.95,0,0,0,3,0L45.15,38.37a3,3,0,0,0,1.5-2.6V14.23a3,3,0,0,0-1.5-2.6L26.5.87A3,3,0,0,0,25,.46Z"/><path class="cls-3" d="M13.09,34.26a6.37,6.37,0,0,1-2.56-2.13l3-4.12a5.76,5.76,0,0,0,1.28,1.43,2.19,2.19,0,0,0,1.31.47,1.55,1.55,0,0,0,1.32-.61,3,3,0,0,0,.45-1.78V20.21H12.3V15.32h11V27.13c0,2.62-.57,4.59-1.71,5.89a6.35,6.35,0,0,1-5,2A8,8,0,0,1,13.09,34.26Z"/><path class="cls-3" d="M28,34.45A9.44,9.44,0,0,1,24.8,33l1.77-4.72a10.44,10.44,0,0,0,2.62,1.27A8.78,8.78,0,0,0,32,30a3.65,3.65,0,0,0,1.64-.26.82.82,0,0,0,.49-.78,1,1,0,0,0-.64-.91,12.71,12.71,0,0,0-2.12-.66,20.71,20.71,0,0,1-3.15-1A5.39,5.39,0,0,1,26,24.67a5.25,5.25,0,0,1-.94-3.31,6.37,6.37,0,0,1,.87-3.29,5.9,5.9,0,0,1,2.58-2.34,9.39,9.39,0,0,1,4.17-.85,12.67,12.67,0,0,1,3.3.43,9.4,9.4,0,0,1,2.86,1.25l-1.66,4.69a9,9,0,0,0-4.55-1.42q-2.13,0-2.13,1.2a.92.92,0,0,0,.63.87,12.12,12.12,0,0,0,2.08.62,17.81,17.81,0,0,1,3.15.95,5.38,5.38,0,0,1,2.23,1.74,5.22,5.22,0,0,1,1,3.3,6.42,6.42,0,0,1-.86,3.28,6,6,0,0,1-2.58,2.33,9.18,9.18,0,0,1-4.17.87A14.56,14.56,0,0,1,28,34.45Z"/></g></svg>