<?xml version="1.0" encoding="UTF-8" standalone="no"?>
<!DOCTYPE svg PUBLIC "-//W3C//DTD SVG 1.1//EN" "http://www.w3.org/Graphics/SVG/1.1/DTD/svg11.dtd">
<svg version="1.1" xmlns="http://www.w3.org/2000/svg" xmlns:xlink="http://www.w3.org/1999/xlink" preserveAspectRatio="xMidYMid meet" viewBox="0 0 60 60" width="60" height="60"><defs><path d="M30.29 1C14.28 1 1.29 13.99 1.29 30C1.29 46.01 14.28 59 30.29 59C46.29 59 59.29 46.01 59.29 30C59.29 13.99 46.29 1 30.29 1Z" id="c28UcDY9ye"></path><path d="M30.29 1C14.28 1 1.29 13.99 1.29 30C1.29 46.01 14.28 59 30.29 59C46.29 59 59.29 46.01 59.29 30C59.29 13.99 46.29 1 30.29 1Z" id="eSac8reYk"></path><path d="M30.29 15.5C22.28 15.5 15.79 22 15.79 30C15.79 38 22.28 44.5 30.29 44.5C38.29 44.5 44.79 38 44.79 30C44.79 22 38.29 15.5 30.29 15.5Z" id="lascWwMZo"></path><path d="M30.29 15.5C22.28 15.5 15.79 22 15.79 30C15.79 38 22.28 44.5 30.29 44.5C38.29 44.5 44.79 38 44.79 30C44.79 22 38.29 15.5 30.29 15.5Z" id="b72qTGYmJ"></path><path d="M30.29 20.14C24.85 20.14 20.43 24.56 20.43 30C20.43 35.44 24.85 39.86 30.29 39.86C35.73 39.86 40.15 35.44 40.15 30C40.15 24.56 35.73 20.14 30.29 20.14Z" id="aToADIAe4"></path><path d="M30.29 20.14C24.85 20.14 20.43 24.56 20.43 30C20.43 35.44 24.85 39.86 30.29 39.86C35.73 39.86 40.15 35.44 40.15 30C40.15 24.56 35.73 20.14 30.29 20.14Z" id="dG3NpYvtj"></path><path d="M32.36 51.03L32.36 44.5L28.21 44.5L28.21 51.03L32.36 51.03Z" id="at6TI3JZF"></path><path d="M32.36 15.5L32.36 8.98L28.21 8.98L28.21 15.5L32.36 15.5Z" id="c2GiX29yg"></path><path d="M51.34 27.95L44.81 27.91L44.79 32.05L51.32 32.09L51.34 27.95Z" id="bH4zjbhX8"></path><path d="M51.34 27.95L44.81 27.91L44.79 32.05L51.32 32.09L51.34 27.95Z" id="eY2rXCGe"></path><path d="M15.79 27.95L9.25 27.91L9.23 32.05L15.76 32.09L15.79 27.95Z" id="cblb57qxv"></path><path d="M42.69 21.49L47.12 16.69L44.07 13.89L39.65 18.68L42.69 21.49Z" id="aeye4vlz2"></path><path d="M42.69 21.49L47.12 16.69L44.07 13.89L39.65 18.68L42.69 21.49Z" id="b6ZRuoCXB"></path><path d="M16.69 46.16L21.11 41.37L18.07 38.56L13.65 43.35L16.69 46.16Z" id="atm671Npq"></path><path d="M21.11 17.96L16.42 13.44L13.55 16.42L18.23 20.95L21.11 17.96Z" id="d4asAgyKLg"></path><path d="M47.12 42.47L42.25 38.13L39.48 41.22L44.36 45.57L47.12 42.47Z" id="c2mBs9xjjI"></path><path d="M47.12 42.47L42.25 38.13L39.48 41.22L44.36 45.57L47.12 42.47Z" id="aCEKN9ZYs"></path></defs><g><g><g><use xlink:href="#c28UcDY9ye" opacity="1" fill="#44f527" fill-opacity="1"></use><g><use xlink:href="#c28UcDY9ye" opacity="1" fill-opacity="0" stroke="#000000" stroke-width="1" stroke-opacity="0"></use></g></g><g><use xlink:href="#eSac8reYk" opacity="1" fill="#000000" fill-opacity="0"></use><g><use xlink:href="#eSac8reYk" opacity="1" fill-opacity="0" stroke="#44f527" stroke-width="1" stroke-opacity="1"></use></g></g><g><use xlink:href="#lascWwMZo" opacity="1" fill="#ffffff" fill-opacity="1"></use><g><use xlink:href="#lascWwMZo" opacity="1" fill-opacity="0" stroke="#000000" stroke-width="1" stroke-opacity="0"></use></g></g><g><use xlink:href="#b72qTGYmJ" opacity="1" fill="#000000" fill-opacity="0"></use><g><use xlink:href="#b72qTGYmJ" opacity="1" fill-opacity="0" stroke="#f8f8f8" stroke-width="1" stroke-opacity="1"></use></g></g><g><use xlink:href="#aToADIAe4" opacity="1" fill="#44f527" fill-opacity="1"></use><g><use xlink:href="#aToADIAe4" opacity="1" fill-opacity="0" stroke="#000000" stroke-width="1" stroke-opacity="0"></use></g></g><g><use xlink:href="#dG3NpYvtj" opacity="1" fill="#000000" fill-opacity="0"></use><g><use xlink:href="#dG3NpYvtj" opacity="1" fill-opacity="0" stroke="#44f527" stroke-width="1" stroke-opacity="1"></use></g></g><g><use xlink:href="#at6TI3JZF" opacity="1" fill="#ffffff" fill-opacity="1"></use><g><use xlink:href="#at6TI3JZF" opacity="1" fill-opacity="0" stroke="#000000" stroke-width="1" stroke-opacity="0"></use></g></g><g><use xlink:href="#c2GiX29yg" opacity="1" fill="#ffffff" fill-opacity="1"></use><g><use xlink:href="#c2GiX29yg" opacity="1" fill-opacity="0" stroke="#000000" stroke-width="1" stroke-opacity="0"></use></g></g><g><use xlink:href="#bH4zjbhX8" opacity="1" fill="#ffffff" fill-opacity="1"></use><g><use xlink:href="#bH4zjbhX8" opacity="1" fill-opacity="0" stroke="#000000" stroke-width="1" stroke-opacity="0"></use></g></g><g><use xlink:href="#eY2rXCGe" opacity="1" fill="#000000" fill-opacity="0"></use><g><use xlink:href="#eY2rXCGe" opacity="1" fill-opacity="0" stroke="#f5f8f5" stroke-width="1" stroke-opacity="0"></use></g></g><g><use xlink:href="#cblb57qxv" opacity="1" fill="#ffffff" fill-opacity="1"></use><g><use xlink:href="#cblb57qxv" opacity="1" fill-opacity="0" stroke="#000000" stroke-width="1" stroke-opacity="0"></use></g></g><g><use xlink:href="#aeye4vlz2" opacity="1" fill="#ffffff" fill-opacity="1"></use><g><use xlink:href="#aeye4vlz2" opacity="1" fill-opacity="0" stroke="#000000" stroke-width="1" stroke-opacity="0"></use></g></g><g><use xlink:href="#b6ZRuoCXB" opacity="1" fill="#000000" fill-opacity="0"></use><g><use xlink:href="#b6ZRuoCXB" opacity="1" fill-opacity="0" stroke="#f5f8f5" stroke-width="1" stroke-opacity="0"></use></g></g><g><use xlink:href="#atm671Npq" opacity="1" fill="#ffffff" fill-opacity="1"></use><g><use xlink:href="#atm671Npq" opacity="1" fill-opacity="0" stroke="#000000" stroke-width="1" stroke-opacity="0"></use></g></g><g><use xlink:href="#d4asAgyKLg" opacity="1" fill="#ffffff" fill-opacity="1"></use><g><use xlink:href="#d4asAgyKLg" opacity="1" fill-opacity="0" stroke="#000000" stroke-width="1" stroke-opacity="0"></use></g></g><g><use xlink:href="#c2mBs9xjjI" opacity="1" fill="#ffffff" fill-opacity="1"></use><g><use xlink:href="#c2mBs9xjjI" opacity="1" fill-opacity="0" stroke="#000000" stroke-width="1" stroke-opacity="0"></use></g></g><g><use xlink:href="#aCEKN9ZYs" opacity="1" fill="#000000" fill-opacity="0"></use><g><use xlink:href="#aCEKN9ZYs" opacity="1" fill-opacity="0" stroke="#f5f8f5" stroke-width="1" stroke-opacity="0"></use></g></g></g></g></svg>