<svg id="Calque_1" data-name="Calque 1" xmlns="http://www.w3.org/2000/svg" viewBox="0 0 60 60"><defs><style>.cls-1{fill:#63d6a7;}.cls-2{fill:none;stroke:#fff;stroke-miterlimit:10;stroke-width:2.68px;}</style></defs><title>forum</title><path class="cls-1" d="M30,0A30,30,0,1,0,60,30,30,30,0,0,0,30,0ZM15.84,49.25a8.09,8.09,0,1,1,8.09-8.09A8.09,8.09,0,0,1,15.84,49.25ZM30,19.93a8.09,8.09,0,1,1,8.09-8.09A8.09,8.09,0,0,1,30,19.93ZM44.16,49.25a8.09,8.09,0,1,1,8.08-8.09A8.09,8.09,0,0,1,44.16,49.25Z"/><circle class="cls-2" cx="29.75" cy="29.79" r="18.45"/><circle class="cls-1" cx="30" cy="11.84" r="5.56"/><circle class="cls-1" cx="44.16" cy="41.16" r="5.56"/><circle class="cls-1" cx="15.84" cy="41.16" r="5.56"/></svg>