<?xml version="1.0" encoding="UTF-8" standalone="no"?>
<!DOCTYPE svg PUBLIC "-//W3C//DTD SVG 1.1//EN" "http://www.w3.org/Graphics/SVG/1.1/DTD/svg11.dtd">
<svg version="1.1" xmlns="http://www.w3.org/2000/svg" xmlns:xlink="http://www.w3.org/1999/xlink" preserveAspectRatio="xMidYMid meet" viewBox="0 0 60 60" width="60" height="60"><defs><path d="M59.5 30C59.5 46.28 46.28 59.5 30 59.5C13.72 59.5 0.5 46.28 0.5 30C0.5 13.72 13.72 0.5 30 0.5C46.28 0.5 59.5 13.72 59.5 30Z" id="bheNOcX02"></path><path d="M39.25 14C44.36 14 48.5 18.97 48.5 25.11C48.5 42.1 30 50.53 30 51C30 51 30 51 30 51C30 50.53 11.5 42.1 11.5 25.11C11.5 18.97 15.64 14 20.75 14C25.86 14 30 18.35 30 24.49C30 18.36 34.14 14 39.25 14Z" id="a8D9aPX546"></path></defs><g><g><g><use xlink:href="#bheNOcX02" opacity="1" fill="#ff457c" fill-opacity="1"></use></g><g><use xlink:href="#a8D9aPX546" opacity="1" fill="#ffffff" fill-opacity="1"></use></g></g></g></svg>