<svg id="info" xmlns="http://www.w3.org/2000/svg" viewBox="0 0 60 60"><defs><style>.cls-1{fill:#fff;}</style></defs><title>info</title><path class="cls-1" d="M30,0A30,30,0,1,0,60,30,30,30,0,0,0,30,0Zm3,47.38a2.62,2.62,0,0,1-.75,2,3,3,0,0,1-2.15.71h-.58a3,3,0,0,1-2.14-.71,2.62,2.62,0,0,1-.75-2v-1a2.62,2.62,0,0,1,.75-2,3,3,0,0,1,2.14-.71h.58a3,3,0,0,1,2.15.71,2.62,2.62,0,0,1,.75,2Zm9.52-18.77a11.62,11.62,0,0,1-4.2,4,14.79,14.79,0,0,1-6,1.83s0,0,0,0,.07,0,.15,0V37.9a2.38,2.38,0,0,1-.78,1.8,2.69,2.69,0,0,1-1.94.75,2.77,2.77,0,0,1-2-.75,2.2,2.2,0,0,1-.72-1.8v-5a2.46,2.46,0,0,1,.78-1.86,2.73,2.73,0,0,1,1.94-.74,10.62,10.62,0,0,0,6.34-2A6.37,6.37,0,0,0,38.44,23a6.41,6.41,0,0,0-2.25-5,8.14,8.14,0,0,0-5.56-2,9.27,9.27,0,0,0-3.56.71,9.71,9.71,0,0,0-3,1.94,3.66,3.66,0,0,1-2.31.95,2.63,2.63,0,0,1-1.51-.48,2.37,2.37,0,0,1-1.27-2,2.34,2.34,0,0,1,.87-1.74,13.66,13.66,0,0,1,4.77-3.23,15.41,15.41,0,0,1,6-1.17,14.63,14.63,0,0,1,6.74,1.54,12.28,12.28,0,0,1,4.84,4.26A11,11,0,0,1,44,23,10.46,10.46,0,0,1,42.47,28.61Z"/></svg>