<svg id="info" xmlns="http://www.w3.org/2000/svg" viewBox="0 0 60 60"><defs><style>.cls-1{fill:#fff;}</style></defs><title>info</title><path class="cls-1" d="M30,0A30,30,0,1,0,60,30,30,30,0,0,0,30,0Zm2.75,54a3.57,3.57,0,0,1-2.57,1,3.46,3.46,0,0,1-2.58-1,3.71,3.71,0,0,1,0-5.15,3.47,3.47,0,0,1,2.54-1,3.57,3.57,0,0,1,2.57,1,3.5,3.5,0,0,1,1.09,2.6A3.45,3.45,0,0,1,32.75,54ZM43.69,24.53a15.49,15.49,0,0,1-2.51,4,56.37,56.37,0,0,1-4.31,4.27l-1.11,1a8.44,8.44,0,0,0-2.45,3.62,12.56,12.56,0,0,0-.72,4.13,2.41,2.41,0,0,1-.68,1.76,2.45,2.45,0,0,1-3.47,0,2.45,2.45,0,0,1-.68-1.76A13.5,13.5,0,0,1,29,36.15a14.42,14.42,0,0,1,3.35-4.83l1.55-1.43c1.4-1.32,2.5-2.43,3.28-3.32a11.26,11.26,0,0,0,2-3.22A11.59,11.59,0,0,0,39.91,19a8.63,8.63,0,0,0-1.18-4.44,8.49,8.49,0,0,0-3.34-3.19,10.34,10.34,0,0,0-5-1.18,9.72,9.72,0,0,0-7.28,2.76,9.81,9.81,0,0,0-2.7,7.16,2.23,2.23,0,0,1-2.35,2.36,2.44,2.44,0,0,1-1.74-.65,2.27,2.27,0,0,1-.68-1.71,15,15,0,0,1,1.86-7.5,13.21,13.21,0,0,1,5.21-5.14,15.54,15.54,0,0,1,7.68-1.87,15.13,15.13,0,0,1,7.35,1.77,13,13,0,0,1,5.09,4.87,13.62,13.62,0,0,1,1.82,7A13.16,13.16,0,0,1,43.69,24.53Z"/></svg>