<svg id="Calque_1" data-name="Calque 1" xmlns="http://www.w3.org/2000/svg" viewBox="0 0 50 50"><defs><style>.cls-1{fill:#424242;}</style></defs><title>instagram</title><path class="cls-1" d="M37,5a8,8,0,0,1,8,8V37a8,8,0,0,1-8,8H13a8,8,0,0,1-8-8V13a8,8,0,0,1,8-8H37m0-5H13A13,13,0,0,0,0,13V37A13,13,0,0,0,13,50H37A13,13,0,0,0,50,37V13A13,13,0,0,0,37,0Z"/><path class="cls-1" d="M25,18a8,8,0,1,1-8,8,8,8,0,0,1,8-8m0-5h0A13,13,0,0,0,12,26h0A13,13,0,0,0,25,39h0A13,13,0,0,0,38,26h0A13,13,0,0,0,25,13Z"/><circle class="cls-1" cx="38" cy="12" r="3"/></svg>