<svg id="logo" xmlns="http://www.w3.org/2000/svg" viewBox="0 0 150 54"><defs><style>.cls-1{fill:#fff;}.cls-2{fill:#ffc25f;}.cls-3{fill:#69b4ff;}.cls-4{fill:#63d6a7;}</style></defs><title>PA website 18.02.2019</title><g id="letters"><g id="P"><path id="P-2" data-name="P" class="cls-1" d="M113.23,17a16.66,16.66,0,0,0-2.08-5.36,17,17,0,0,0-6.92-6.36A21.76,21.76,0,0,0,94.16,3H79a4.1,4.1,0,0,0-2.81,1A3.31,3.31,0,0,0,75,6.6V53.4A3.31,3.31,0,0,0,76.14,56,4,4,0,0,0,79,57a4,4,0,0,0,2.85-1,3.36,3.36,0,0,0,1.11-2.56V38.26H94.16A23.36,23.36,0,0,0,102,37a20.21,20.21,0,0,0,2.25-1,16.84,16.84,0,0,0,6.92-6.15A16.11,16.11,0,0,0,113.5,23a17.92,17.92,0,0,0,.12-2.09A19.13,19.13,0,0,0,113.23,17Zm-7.4,6a9.73,9.73,0,0,1-3.16,5.62,12.27,12.27,0,0,1-8.51,3H82.91v-22H94.16a11.86,11.86,0,0,1,8.51,3.18A10.34,10.34,0,0,1,105.39,17a12,12,0,0,1,.62,3.91A11.78,11.78,0,0,1,105.83,23Z" transform="translate(0 -3)"/><path class="cls-2" d="M113.23,17h-7.84a10.34,10.34,0,0,0-2.72-4.18,11.86,11.86,0,0,0-8.51-3.18H82.91V17H75V6.6A3.31,3.31,0,0,1,76.14,4,4.1,4.1,0,0,1,79,3H94.16a21.76,21.76,0,0,1,10.07,2.28,17,17,0,0,1,6.92,6.36A16.66,16.66,0,0,1,113.23,17Z" transform="translate(0 -3)"/><path class="cls-3" d="M82.91,43V53.4A3.36,3.36,0,0,1,81.8,56,4,4,0,0,1,79,57a4,4,0,0,1-2.81-1A3.31,3.31,0,0,1,75,53.4V43Z" transform="translate(0 -3)"/><path class="cls-4" d="M113.5,23a16.11,16.11,0,0,1-2.35,6.9,16.84,16.84,0,0,1-6.92,6.15A20.21,20.21,0,0,1,102,37H75V23h7.91v8.62H94.16a12.27,12.27,0,0,0,8.51-3A9.73,9.73,0,0,0,105.83,23Z" transform="translate(0 -3)"/></g><g id="A"><path id="A-2" data-name="A" class="cls-1" d="M149.72,53.27,145,43l-2.77-6-6.45-14-1.91-4.15a2.72,2.72,0,0,0-2.75-1.79,2.86,2.86,0,0,0-2.76,1.79L126.44,23,120,37l-2.76,6-4.68,10.16a3.08,3.08,0,0,0-.28,1.18,2.5,2.5,0,0,0,.82,1.87,2.8,2.8,0,0,0,2,.79,3,3,0,0,0,1.57-.43,2.87,2.87,0,0,0,1.13-1.21L121,48.2h20.19l3.15,7.16a2.51,2.51,0,0,0,1.09,1.21,3.19,3.19,0,0,0,1.61.43,3,3,0,0,0,2.08-.77,2.4,2.4,0,0,0,.84-1.84A2.94,2.94,0,0,0,149.72,53.27ZM123,43.81l.37-.81,2.7-6,5.14-11.4,5,11.4,2.65,6,.36.81Z" transform="translate(0 -3)"/><path class="cls-3" d="M149.72,53.27,145,43H138.9l.36.81H123l.37-.81h-6.15l-4.68,10.16a3.08,3.08,0,0,0-.28,1.18,2.5,2.5,0,0,0,.82,1.87,2.8,2.8,0,0,0,2,.79,3,3,0,0,0,1.57-.43,2.87,2.87,0,0,0,1.13-1.21L121,48.2h20.19l3.15,7.16a2.51,2.51,0,0,0,1.09,1.21,3.19,3.19,0,0,0,1.61.43H150V54.39A2.94,2.94,0,0,0,149.72,53.27Z" transform="translate(0 -3)"/><polygon class="cls-4" points="142.22 34 136.25 34 131.22 22.6 126.08 34 119.99 34 126.44 20 135.77 20 142.22 34"/></g></g><g id="_" data-name="&gt;"><path class="cls-3" d="M35,43H7A7,7,0,0,0,7,57H35a7,7,0,0,0,0-14Zm0,12a5,5,0,1,1,5-5A5,5,0,0,1,35,55Z" transform="translate(0 -3)"/><path class="cls-4" d="M52.24,23H23a3.69,3.69,0,0,0-.47,0,6.66,6.66,0,0,0-3.27,1h0L24,30l-4.7,5.9h0a6.66,6.66,0,0,0,3.27,1A3,3,0,0,0,23,37H52.24a8.19,8.19,0,0,0,5.49-2A6.64,6.64,0,0,0,60,30C60,26.13,56.53,23,52.24,23ZM53,35a5,5,0,1,1,5-5A5,5,0,0,1,53,35Z" transform="translate(0 -3)"/><path class="cls-2" d="M35,3H7A7,7,0,0,0,7,17H35A7,7,0,0,0,35,3Zm0,12a5,5,0,1,1,5-5A5,5,0,0,1,35,15Z" transform="translate(0 -3)"/></g></svg>