<svg xmlns="http://www.w3.org/2000/svg" viewBox="0 0 50 50"><defs><style>.cls-1{fill:#66595c;}.cls-2{fill:#726569;}.cls-3{fill:#fff;}</style></defs><title>topic_icons</title><g id="Atom"><circle class="cls-1" cx="25" cy="25" r="21"/><path class="cls-2" d="M25,5.5A19.5,19.5,0,1,1,5.5,25,19.53,19.53,0,0,1,25,5.5m0-3A22.5,22.5,0,1,0,47.5,25,22.5,22.5,0,0,0,25,2.5Z"/><path class="cls-3" d="M17.59,21.23a10.64,10.64,0,0,0-4.81,1.93A1.68,1.68,0,0,0,12.64,26a13.67,13.67,0,0,0,1.74,1.28c.28.19.62.41.32.74a.84.84,0,0,1-.8.08A10.86,10.86,0,0,1,12,26.63a2.65,2.65,0,0,1,.24-4.26A9.71,9.71,0,0,1,16,20.61c1.42-.38,1.4-.36,1.16-1.8a9.37,9.37,0,0,1,.07-4.18A2.62,2.62,0,0,1,21,12.69,14.17,14.17,0,0,1,23.24,14c.3.18.56.46.25.83s-.55.12-.83-.06a14.52,14.52,0,0,0-2-1.16c-1.29-.54-2.13-.08-2.54,1.25a8.56,8.56,0,0,0-.07,3.8c.23,1.47.25,1.47,1.72,1.25a1.67,1.67,0,0,1,.31-.05c1.61.25,2.6-.61,3.54-1.8a16.2,16.2,0,0,1,4.75-4.12,7.55,7.55,0,0,1,1.76-.74,2.67,2.67,0,0,1,3.69,2.51,13.74,13.74,0,0,1-.13,2.79c0,.2-.37.36-.56.54-.13-.21-.36-.42-.36-.63,0-.72.13-1.44.12-2.16,0-1.92-1.12-2.73-2.89-2A12.76,12.76,0,0,0,27,16.17c-1.22,1-2.29,2.2-3.43,3.31l.11.2c.84.05,1.68.09,2.51.16a25.57,25.57,0,0,1,9.43,2.26,9.79,9.79,0,0,1,2.53,1.78,2.55,2.55,0,0,1-.25,4.06,12.8,12.8,0,0,1-2.31,1.32c-.15.08-.45-.14-.68-.22.1-.21.14-.51.31-.61.55-.36,1.19-.58,1.72-1,1.42-1,1.48-2.15.17-3.3a10.89,10.89,0,0,0-3.88-2,31.71,31.71,0,0,0-10-1.46,1,1,0,0,0-.73.36c-.79,1.16-1.55,2.35-2.29,3.54a.77.77,0,0,0-.07.64A28.27,28.27,0,0,0,27,35.33a8.92,8.92,0,0,0,2.49,1.51,1.57,1.57,0,0,0,2.29-1.13,8.81,8.81,0,0,0,.06-4.3,27.93,27.93,0,0,0-2.28-7c-.16-.35-.5-.81,0-1.07s.69.29.86.66a25.72,25.72,0,0,1,2.5,8.33,10.92,10.92,0,0,1-.2,3.47c-.43,1.91-1.93,2.62-3.78,1.93a10.64,10.64,0,0,1-4-3,31,31,0,0,1-5-7.4l-.58-1.15a4.18,4.18,0,0,0-.27.36,19.39,19.39,0,0,0-2.07,6.53,6.56,6.56,0,0,0,.2,2.2,1.39,1.39,0,0,0,1.81,1.09,20.44,20.44,0,0,0,2.57-1.06c.19-.09.35-.3.54-.32a.76.76,0,0,1,.59.2.56.56,0,0,1-.08.54,6.46,6.46,0,0,1-4.06,1.64,2.54,2.54,0,0,1-2.46-2.27,9.23,9.23,0,0,1,.49-4.83c.56-1.67,1.32-3.27,2-4.91a1.51,1.51,0,0,0,.05-.94C18.36,23.37,18,22.36,17.59,21.23Zm1-.22.91,2.76,2-3Z"/><path class="cls-3" d="M26.61,25.41a1.53,1.53,0,1,1-3.06-.07,1.53,1.53,0,1,1,3.06.07Z"/></g></svg>