<svg xmlns="http://www.w3.org/2000/svg" viewBox="0 0 50 50"><defs><style>.cls-1{fill:#00adef;}.cls-2{fill:#33bddd;}.cls-3{fill:#fff;}</style></defs><title>topic_icons</title><g id="Windows"><circle class="cls-1" cx="25" cy="25.38" r="21"/><path class="cls-2" d="M25,5.88A19.5,19.5,0,1,1,5.5,25.38,19.53,19.53,0,0,1,25,5.88m0-3a22.5,22.5,0,1,0,22.5,22.5A22.5,22.5,0,0,0,25,2.88Z"/><polygon class="cls-3" points="13.78 17.34 22.91 16.07 22.91 24.92 13.78 24.92 13.78 17.34"/><polygon class="cls-3" points="24.08 15.93 36.23 14.13 36.23 24.75 24.08 24.92 24.08 15.93"/><polygon class="cls-3" points="13.78 25.84 22.91 25.98 22.91 34.8 13.78 33.53 13.78 25.84"/><polygon class="cls-3" points="24.08 26.02 36.23 26.02 36.23 36.64 24.08 34.95 24.08 26.02"/></g></svg>