<svg xmlns="http://www.w3.org/2000/svg" viewBox="0 0 50 50"><defs><style>.cls-1,.cls-3,.cls-6{fill:#333;}.cls-2{fill:#3f3f3f;}.cls-3,.cls-5,.cls-7,.cls-8{stroke:#fff;}.cls-3,.cls-7,.cls-8{stroke-miterlimit:10;}.cls-3,.cls-5,.cls-6,.cls-7,.cls-8{stroke-width:0.25px;}.cls-4{fill:#fff;}.cls-5{fill:none;}.cls-6{stroke:#333;}.cls-7{fill:#f2c611;}.cls-8{fill:#f4bd0f;}</style></defs><title>topic_icons</title><g id="Linux"><circle class="cls-1" cx="25" cy="25.38" r="21"/><path class="cls-2" d="M25,5.88A19.5,19.5,0,1,1,5.5,25.38,19.53,19.53,0,0,1,25,5.88m0-3a22.5,22.5,0,1,0,22.5,22.5A22.5,22.5,0,0,0,25,2.88Z"/><g id="g1369"><path id="path106" class="cls-3" d="M18.92,32.51c-1.13-1.64-1.36-7,1.3-10.24A6.39,6.39,0,0,0,22,18.14c.07-1.68-1.18-6.68,3.55-7.06s4.54,4.35,4.52,6.85c0,2.12,1.55,3.32,2.63,5,2,3,1.83,8.25-.38,11.07-2.79,3.53-5.18,2-6.77,2.13C22.55,36.26,22.45,37.85,18.92,32.51Z"/><path id="path113" class="cls-4" d="M30.51,23.21c.83.76,3,4.17-.42,6.29-1.2.74,1.06,3.58,2.15,2.2,1.92-2.46.69-6.38-.45-7.79C31,22.92,29.81,22.53,30.51,23.21Z"/><path id="path111" class="cls-1" d="M30.28,22.74c1.36,1.1,3.83,5,.22,7.47-1.18.79,1.05,3.25,2.31,2,4.36-4.39-.12-9.43-1.66-11.16C29.78,19.53,28.56,21.39,30.28,22.74Z"/><path id="path115" class="cls-4" d="M24.35,16.46c0,.82-.34,1.51-.87,1.54s-1-.61-1.05-1.43h0c-.05-.82.35-1.5.88-1.54s1,.61,1,1.43Z"/><path id="path116" class="cls-4" d="M25.31,16.52a1.55,1.55,0,0,0,1.37,1.68A1.57,1.57,0,0,0,28,16.45h0a1.54,1.54,0,0,0-1.36-1.68,1.57,1.57,0,0,0-1.3,1.75Z"/><path id="path117" class="cls-1" d="M25.92,16.74c0,.52.25.94.59.94s.61-.42.62-.94h0c0-.52-.25-.94-.58-.94s-.62.42-.63.94Z"/><path id="path118" class="cls-1" d="M23.8,16.74c0,.43-.12.8-.36.83s-.47-.29-.51-.72h0c0-.43.12-.8.36-.83s.47.29.51.72Z"/><path class="cls-5" d="M21.07,21.12s-4.93,4.8-2.81,8.48"/><path id="path128" class="cls-4" d="M20.71,25.53c.65-1.48,2-4.08,2.06-6.09,0-1.6,4.79-2,5.17-.38a27.41,27.41,0,0,0,2,5.14c.62,1.15,2.43,4.81.51,8-1.74,2.83-7,5.07-9.81-.38A7.6,7.6,0,0,1,20.71,25.53Z"/><path id="path112" class="cls-4" d="M20.12,24.43c-.56,1.05-1.72,3.83,1.11,5.35,3,1.61,3,4.92-.63,3.35-3.34-1.43-1.86-7.19-.93-8.57C20.29,23.59,21.2,22.41,20.12,24.43Z"/><path id="path109" class="cls-6" d="M20.59,23.23c-.88,1.45-3,4.87-.16,6.65,3.84,2.35,2.75,4.71-.75,2.59-4.94-3-.61-8.93,1.37-11.2C23.31,18.72,21.49,21.73,20.59,23.23Z"/><path id="path132" class="cls-7" d="M18.79,36.81c-2.06-1.09-5,.21-4-2.75.21-.67-.33-1.67,0-2.33s1.3-.62,1.83-1.15.86-1.51,1.83-1.36,1.62,1.34,2.3,2.81c.51,1,2.29,2.52,2.17,3.69C22.85,37.53,20.81,37.87,18.79,36.81Z"/><path id="path133" class="cls-7" d="M33.05,36.3c1.5-1.82,4.85-1.45,2.59-4-.47-.53-.33-1.7-.91-2.19s-1.45-.11-2.15-.42-1.43-1-2.29-.53-.95,1.68-1,3.27c-.07,1.15-1.11,3.07-.56,4.12C29.52,38.23,31.61,38,33.05,36.3Z"/><path id="path136" class="cls-1" d="M33.56,29.84a2.49,2.49,0,0,1-2.15,1c-.76-.19-1.1-1.27-.95-2.08s.95-1,2-.51S33.88,29.21,33.56,29.84Z"/><path id="path137" class="cls-4" d="M32.8,29.57a1.58,1.58,0,0,1-1.42.72c-.51-.13-.77-.88-.68-1.44s.62-.67,1.32-.36S33,29.14,32.8,29.57Z"/><path id="path119" class="cls-8" d="M23.31,17.59a2.06,2.06,0,0,1,3-.29,8.86,8.86,0,0,0,1.17.48c1.2.5.62,1.69-.65,2.09-.55.18-1.05.84-2,.78s-1.07-.6-1.6-.91c-.93-.52-1.06-1.23-.56-1.6Z"/></g></g></svg>