<svg xmlns="http://www.w3.org/2000/svg" viewBox="0 0 50 50"><defs><style>.cls-1{fill:#ededed;}.cls-2{fill:#d8d8d8;}.cls-3,.cls-5{fill:none;stroke-miterlimit:10;}.cls-3{stroke:#afafaf;stroke-width:0.5px;}.cls-4{fill:#383838;}.cls-5{stroke:#383838;stroke-linecap:round;}</style></defs><title>topic_icons</title><g id="MacOS"><circle class="cls-1" cx="25" cy="25.38" r="21"/><path class="cls-2" d="M25,5.88A19.5,19.5,0,1,1,5.5,25.38,19.53,19.53,0,0,1,25,5.88m0-3a22.5,22.5,0,1,0,22.5,22.5A22.5,22.5,0,0,0,25,2.88Z"/><path class="cls-3" d="M26.56,13.44S21.3,21,21.43,27.34c0,0-.54,1.5,5.13,1,0,0-.67,6.44,1.47,11.78"/><rect class="cls-4" x="15.31" y="16.47" width="2.01" height="4.92" rx="1.01"/><rect class="cls-4" x="31.88" y="16.47" width="2.01" height="4.92" rx="1.01"/><path class="cls-5" d="M16.32,32.48s8.68,4.94,16.57-.37"/></g></svg>