<svg id="window" xmlns="http://www.w3.org/2000/svg" viewBox="0 0 640 447.3"><defs><style>.cls-1{fill:#3a3837;}.cls-2{fill:#282828;}.cls-3{fill:#adadad;}.cls-4{fill:#ff2cff;}.cls-5{fill:#f99926;}.cls-6{fill:#d8d8d8;}.cls-7{fill:#3fd13b;}.cls-8{fill:#40a3db;}.cls-9{fill:#60aaf4;}.cls-10{fill:#ffb140;}.cls-11{fill:#f93d3d;}.cls-12{fill:#db4545;}</style></defs><title>errorwiki_illustration</title><rect class="cls-1" width="640" height="447.3" rx="9" ry="9"/><rect class="cls-2" x="11.25" y="36.48" width="617.49" height="400.68" rx="9" ry="9"/><rect class="cls-3" x="11.25" y="11.25" width="80.18" height="12.66" rx="4.5" ry="4.5"/><rect class="cls-3" x="104.09" y="11.25" width="126.59" height="12.66" rx="4.5" ry="4.5"/><rect class="cls-4" x="63.3" y="54.86" width="60.48" height="12.66" rx="4.5" ry="4.5"/><rect class="cls-5" x="133.63" y="54.86" width="35.16" height="12.66" rx="4.5" ry="4.5"/><rect class="cls-6" x="181.45" y="54.86" width="144.88" height="12.66" rx="4.5" ry="4.5"/><rect class="cls-6" x="63.3" y="93.77" width="80.18" height="12.66" rx="6.33" ry="6.33"/><path class="cls-7" d="M230.82,122.43H157.4c-2.25,0-4.08-2.84-4.08-6.33h0c0-3.48,1.83-6.32,4.08-6.32h73.42c2.25,0,4.08,2.84,4.08,6.32h0C234.9,119.59,233.07,122.43,230.82,122.43Z" transform="translate(0 -16)"/><rect class="cls-5" x="63.3" y="132.69" width="80.18" height="12.66" rx="6.33" ry="6.33"/><rect class="cls-6" x="153.32" y="132.69" width="126.59" height="12.66" rx="6.33" ry="6.33"/><path class="cls-7" d="M353.24,160.88h-58c-3,0-5.44-2.85-5.44-6.33h0c0-3.48,2.45-6.33,5.44-6.33h58c3,0,5.44,2.85,5.44,6.33h0C358.68,158,356.23,160.88,353.24,160.88Z" transform="translate(0 -16)"/><path class="cls-8" d="M470.08,160.88H373.87c-2.94,0-5.34-2.85-5.34-6.33h0c0-3.48,2.4-6.33,5.34-6.33h96.21c2.94,0,5.35,2.85,5.35,6.33h0C475.43,158,473,160.88,470.08,160.88Z" transform="translate(0 -16)"/><rect class="cls-5" x="63.3" y="171.6" width="60.48" height="12.66" rx="4.5" ry="4.5"/><rect class="cls-8" x="133.63" y="171.6" width="35.16" height="12.66" rx="4.5" ry="4.5"/><rect class="cls-6" x="181.45" y="171.6" width="144.88" height="12.66" rx="4.5" ry="4.5"/><rect class="cls-6" x="63.3" y="210.52" width="80.18" height="12.66" rx="6.33" ry="6.33"/><path class="cls-6" d="M230.82,239.18H157.4c-2.25,0-4.08-2.85-4.08-6.33h0c0-3.48,1.83-6.33,4.08-6.33h73.42c2.25,0,4.08,2.85,4.08,6.33h0C234.9,236.33,233.07,239.18,230.82,239.18Z" transform="translate(0 -16)"/><rect class="cls-4" x="63.3" y="249.44" width="80.18" height="12.66" rx="6.33" ry="6.33"/><rect class="cls-8" x="153.32" y="249.44" width="126.59" height="12.66" rx="6.33" ry="6.33"/><path class="cls-8" d="M353.24,277.63h-58c-3,0-5.44-2.85-5.44-6.33h0c0-3.48,2.45-6.33,5.44-6.33h58c3,0,5.44,2.85,5.44,6.33h0C358.68,274.78,356.23,277.63,353.24,277.63Z" transform="translate(0 -16)"/><path class="cls-6" d="M470.08,277.63H373.87c-2.94,0-5.34-2.85-5.34-6.33h0c0-3.48,2.4-6.33,5.34-6.33h96.21c2.94,0,5.35,2.85,5.35,6.33h0C475.43,274.78,473,277.63,470.08,277.63Z" transform="translate(0 -16)"/><rect class="cls-5" x="63.3" y="288.35" width="60.48" height="12.66" rx="4.5" ry="4.5"/><rect class="cls-7" x="133.63" y="288.35" width="35.16" height="12.66" rx="4.5" ry="4.5"/><rect class="cls-6" x="181.45" y="288.35" width="144.88" height="12.66" rx="4.5" ry="4.5"/><rect class="cls-8" x="63.3" y="327.27" width="80.18" height="12.66" rx="6.33" ry="6.33"/><path class="cls-6" d="M230.82,355.93H157.4c-2.25,0-4.08-2.85-4.08-6.33h0c0-3.48,1.83-6.33,4.08-6.33h73.42c2.25,0,4.08,2.85,4.08,6.33h0C234.9,353.08,233.07,355.93,230.82,355.93Z" transform="translate(0 -16)"/><rect class="cls-7" x="63.3" y="366.18" width="80.18" height="12.66" rx="6.33" ry="6.33"/><rect class="cls-6" x="153.32" y="366.18" width="126.59" height="12.66" rx="6.33" ry="6.33"/><path class="cls-5" d="M353.24,394.38h-58c-3,0-5.44-2.85-5.44-6.33h0c0-3.49,2.45-6.33,5.44-6.33h58c3,0,5.44,2.84,5.44,6.33h0C358.68,391.53,356.23,394.38,353.24,394.38Z" transform="translate(0 -16)"/><path class="cls-8" d="M470.08,394.38H373.87c-2.94,0-5.34-2.85-5.34-6.33h0c0-3.49,2.4-6.33,5.34-6.33h96.21c2.94,0,5.35,2.84,5.35,6.33h0C475.43,391.53,473,394.38,470.08,394.38Z" transform="translate(0 -16)"/><rect class="cls-4" x="63.3" y="405.1" width="64.7" height="12.66" rx="4.5" ry="4.5"/><rect class="cls-6" x="143.47" y="405.1" width="158.95" height="12.66" rx="4.5" ry="4.5"/><circle class="cls-9" cx="546.46" cy="17.58" r="10.55"/><circle class="cls-10" cx="583.03" cy="17.58" r="10.55"/><circle class="cls-11" cx="618.2" cy="17.58" r="10.55"/><path class="cls-12" d="M42.54,77.89l4-4a4.22,4.22,0,0,0-6-6l-4,4-4-4a4.21,4.21,0,0,0-6,6l4,4-4,4a4.22,4.22,0,1,0,6,6l4-4,4,4a4.22,4.22,0,0,0,6-6Z" transform="translate(0 -16)"/><path class="cls-12" d="M42.54,272l4-4a4.22,4.22,0,1,0-6-6l-4,4-4-4a4.21,4.21,0,1,0-6,6l4,4-4,4a4.22,4.22,0,1,0,6,6l4-4,4,4a4.22,4.22,0,1,0,6-6Z" transform="translate(0 -16)"/><path class="cls-12" d="M42.54,349.36l4-4a4.22,4.22,0,1,0-6-6l-4,4-4-4a4.22,4.22,0,1,0-6,6l4,4-4,4a4.22,4.22,0,1,0,6,6l4-4,4,4a4.22,4.22,0,0,0,6-6Z" transform="translate(0 -16)"/><path class="cls-12" d="M42.54,194.64l4-4a4.22,4.22,0,0,0-6-6l-4,4-4-4a4.22,4.22,0,0,0-6,6l4,4-4,4a4.22,4.22,0,1,0,6,6l4-4,4,4a4.22,4.22,0,1,0,6-6Z" transform="translate(0 -16)"/><path class="cls-12" d="M42.54,234l4-4a4.22,4.22,0,1,0-6-6l-4,4-4-4a4.22,4.22,0,1,0-6,6l4,4-4,4a4.22,4.22,0,1,0,6,6l4-4,4,4a4.22,4.22,0,1,0,6-6Z" transform="translate(0 -16)"/><path class="cls-12" d="M42.54,428.13l4-4a4.22,4.22,0,0,0-6-6l-4,4-4-4a4.22,4.22,0,1,0-6,6l4,4-4,4a4.22,4.22,0,1,0,6,6l4-4,4,4a4.22,4.22,0,1,0,6-6Z" transform="translate(0 -16)"/></svg>