<svg xmlns="http://www.w3.org/2000/svg" viewBox="0 0 640 480"><defs><style>.cls-1{fill:#fff;}.cls-2{fill:#3a3837;}.cls-3{font-size:150px;fill:#e5e5e5;font-family:ChunkFive-Roman, ChunkFive;}.cls-4{fill:#282828;}.cls-5{fill:#adadad;}.cls-6{fill:#bf38e0;}.cls-7{fill:#f99926;}.cls-8{fill:#d8d8d8;}.cls-9{fill:#3fd13b;}.cls-10{fill:#40a3db;}.cls-11{fill:#60aaf4;}.cls-12{fill:#ffb140;}.cls-13{fill:#f93d3d;}.cls-14{fill:#db4545;}</style></defs><title>Illustration-ErrorWiki</title><g id="fond"><rect class="cls-1" width="640" height="480"/></g><g id="items"><ellipse class="cls-2" cx="524.67" cy="97.68" rx="65.2" ry="77.52" transform="translate(257.57 559.71) rotate(-70.51)"/><text class="cls-3" transform="translate(484.46 147.87) rotate(5.45)">?</text><rect class="cls-4" x="403" y="127.98" width="94" height="61" rx="9" ry="9"/></g><g id="window"><rect class="cls-2" x="50" y="102" width="455" height="318" rx="9" ry="9"/><rect class="cls-4" x="58" y="127.94" width="439" height="284.86" rx="9" ry="9"/><rect class="cls-5" x="58" y="110" width="57" height="9" rx="4.5" ry="4.5"/><rect class="cls-5" x="124" y="110" width="90" height="9" rx="4.5" ry="4.5"/><rect class="cls-6" x="95" y="141" width="43" height="9" rx="4.5" ry="4.5"/><rect class="cls-7" x="145" y="141" width="25" height="9" rx="4.5" ry="4.5"/><rect class="cls-8" x="179" y="141" width="103" height="9" rx="4.5" ry="4.5"/><rect class="cls-8" x="95" y="168.67" width="57" height="9" rx="4.5" ry="4.5"/><path class="cls-9" d="M214.1,177.67H161.9c-1.6,0-2.9-2-2.9-4.5h0c0-2.48,1.3-4.5,2.9-4.5h52.2c1.6,0,2.9,2,2.9,4.5h0C217,175.64,215.7,177.67,214.1,177.67Z"/><rect class="cls-7" x="95" y="196.33" width="57" height="9" rx="4.5" ry="4.5"/><rect class="cls-8" x="159" y="196.33" width="90" height="9" rx="4.5" ry="4.5"/><path class="cls-9" d="M301.13,205H259.87c-2.13,0-3.87-2-3.87-4.5h0c0-2.48,1.74-4.5,3.87-4.5h41.26c2.13,0,3.87,2,3.87,4.5h0C305,203,303.26,205,301.13,205Z"/><path class="cls-10" d="M384.2,205H315.8c-2.09,0-3.8-2-3.8-4.5h0c0-2.48,1.71-4.5,3.8-4.5h68.4c2.09,0,3.8,2,3.8,4.5h0C388,203,386.29,205,384.2,205Z"/><rect class="cls-7" x="95" y="224" width="43" height="9" rx="4.5" ry="4.5"/><rect class="cls-10" x="145" y="224" width="25" height="9" rx="4.5" ry="4.5"/><rect class="cls-8" x="179" y="224" width="103" height="9" rx="4.5" ry="4.5"/><rect class="cls-8" x="95" y="251.67" width="57" height="9" rx="4.5" ry="4.5"/><path class="cls-8" d="M214.1,260.67H161.9c-1.6,0-2.9-2-2.9-4.5h0c0-2.48,1.3-4.5,2.9-4.5h52.2c1.6,0,2.9,2,2.9,4.5h0C217,258.64,215.7,260.67,214.1,260.67Z"/><rect class="cls-6" x="95" y="279.33" width="57" height="9" rx="4.5" ry="4.5"/><rect class="cls-10" x="159" y="279.33" width="90" height="9" rx="4.5" ry="4.5"/><path class="cls-10" d="M301.13,288H259.87c-2.13,0-3.87-2-3.87-4.5h0c0-2.48,1.74-4.5,3.87-4.5h41.26c2.13,0,3.87,2,3.87,4.5h0C305,286,303.26,288,301.13,288Z"/><path class="cls-8" d="M384.2,288H315.8c-2.09,0-3.8-2-3.8-4.5h0c0-2.48,1.71-4.5,3.8-4.5h68.4c2.09,0,3.8,2,3.8,4.5h0C388,286,386.29,288,384.2,288Z"/><rect class="cls-7" x="95" y="307" width="43" height="9" rx="4.5" ry="4.5"/><rect class="cls-9" x="145" y="307" width="25" height="9" rx="4.5" ry="4.5"/><rect class="cls-8" x="179" y="307" width="103" height="9" rx="4.5" ry="4.5"/><rect class="cls-10" x="95" y="334.67" width="57" height="9" rx="4.5" ry="4.5"/><path class="cls-8" d="M214.1,343.67H161.9c-1.6,0-2.9-2-2.9-4.5h0c0-2.48,1.3-4.5,2.9-4.5h52.2c1.6,0,2.9,2,2.9,4.5h0C217,341.64,215.7,343.67,214.1,343.67Z"/><rect class="cls-9" x="95" y="362.33" width="57" height="9" rx="4.5" ry="4.5"/><rect class="cls-8" x="159" y="362.33" width="90" height="9" rx="4.5" ry="4.5"/><path class="cls-7" d="M301.13,371H259.87c-2.13,0-3.87-2-3.87-4.5h0c0-2.48,1.74-4.5,3.87-4.5h41.26c2.13,0,3.87,2,3.87,4.5h0C305,369,303.26,371,301.13,371Z"/><path class="cls-10" d="M384.2,371H315.8c-2.09,0-3.8-2-3.8-4.5h0c0-2.48,1.71-4.5,3.8-4.5h68.4c2.09,0,3.8,2,3.8,4.5h0C388,369,386.29,371,384.2,371Z"/><rect class="cls-6" x="95" y="390" width="46" height="9" rx="4.5" ry="4.5"/><rect class="cls-8" x="152" y="390" width="113" height="9" rx="4.5" ry="4.5"/><circle class="cls-11" cx="438.5" cy="114.5" r="7.5"/><circle class="cls-12" cx="464.5" cy="114.5" r="7.5"/><circle class="cls-13" cx="489.5" cy="114.5" r="7.5"/><path class="cls-14" d="M80.24,146l2.83-2.83a3,3,0,0,0-4.24-4.24L76,141.76l-2.83-2.83a3,3,0,0,0-4.24,4.24L71.76,146l-2.83,2.83a3,3,0,0,0,4.24,4.24L76,150.24l2.83,2.83a3,3,0,0,0,4.24-4.24Z"/><path class="cls-14" d="M80.24,284l2.83-2.83a3,3,0,0,0-4.24-4.24L76,279.76l-2.83-2.83a3,3,0,0,0-4.24,4.24L71.76,284l-2.83,2.83a3,3,0,0,0,4.24,4.24L76,288.24l2.83,2.83a3,3,0,0,0,4.24-4.24Z"/><path class="cls-14" d="M80.24,339l2.83-2.83a3,3,0,0,0-4.24-4.24L76,334.76l-2.83-2.83a3,3,0,0,0-4.24,4.24L71.76,339l-2.83,2.83a3,3,0,0,0,4.24,4.24L76,343.24l2.83,2.83a3,3,0,0,0,4.24-4.24Z"/><path class="cls-14" d="M80.24,229l2.83-2.83a3,3,0,0,0-4.24-4.24L76,224.76l-2.83-2.83a3,3,0,0,0-4.24,4.24L71.76,229l-2.83,2.83a3,3,0,0,0,4.24,4.24L76,233.24l2.83,2.83a3,3,0,0,0,4.24-4.24Z"/><path class="cls-14" d="M80.24,257l2.83-2.83a3,3,0,0,0-4.24-4.24L76,252.76l-2.83-2.83a3,3,0,0,0-4.24,4.24L71.76,257l-2.83,2.83a3,3,0,0,0,4.24,4.24L76,261.24l2.83,2.83a3,3,0,0,0,4.24-4.24Z"/><path class="cls-14" d="M80.24,395l2.83-2.83a3,3,0,0,0-4.24-4.24L76,390.76l-2.83-2.83a3,3,0,0,0-4.24,4.24L71.76,395l-2.83,2.83a3,3,0,0,0,4.24,4.24L76,399.24l2.83,2.83a3,3,0,0,0,4.24-4.24Z"/></g></svg>