<svg xmlns="http://www.w3.org/2000/svg" viewBox="0 0 609 440"><defs><style>.cls-1{fill:#272828;}.cls-2{fill:#4b5e66;}.cls-3{fill:#efefef;}.cls-4{fill:#8e8d8d;}.cls-5{fill:#b7b7b7;}.cls-6{fill:#898989;}.cls-7{fill:#a8a8a8;}.cls-8{fill:#3a3837;}.cls-9{fill:#f7f6f5;}.cls-10{fill:#282828;}.cls-11{fill:#a5a5a5;}.cls-12{fill:#c4c4c4;}.cls-13{fill:#7c7975;}.cls-14{fill:#b2b2b2;}.cls-15{fill:#9b9b9b;}.cls-16{fill:#969696;}.cls-17{fill:#d1d1d1;}.cls-18{fill:#bababa;}.cls-19{fill:#cecece;}.cls-20{fill:#8c8c8c;}.cls-21{fill:#848484;}.cls-22{fill:#c9c9c9;}.cls-23{fill:#8e8d8b;}.cls-24{fill:#595857;}.cls-25{fill:#f93d3d;}.cls-26{fill:#ffb140;}.cls-27{fill:#60aaf4;}.cls-28{fill:#fc4949;}.cls-29{fill:#89c9e5;}.cls-30{fill:#424242;}.cls-31{fill:#1a1c1c;}.cls-32{fill:#fff;}.cls-33{fill:#303030;}.cls-34{fill:#e0e0e0;}.cls-35{fill:#2b2d2d;}.cls-36{fill:#979797;}.cls-37{fill:#b5b5b5;}.cls-38{fill:#757575;}.cls-39{fill:#bfbfbf;}.cls-40{fill:#bcbcbc;}.cls-41{fill:#999;}.cls-42{fill:#727272;}.cls-43{fill:#d8d8d8;}.cls-44{fill:#595959;}.cls-45{fill:#5e5e5e;}</style></defs><title>home_illustration</title><g id="computer"><rect class="cls-1" x="48.03" width="509.2" height="339" rx="9" ry="9"/><rect class="cls-2" x="61" y="15" width="482.97" height="287" rx="9" ry="9"/><path class="cls-3" d="M61,280H544a0,0,0,0,1,0,0v13a9,9,0,0,1-9,9H70a9,9,0,0,1-9-9V280A0,0,0,0,1,61,280Z"/><rect class="cls-4" x="130" y="283" width="16" height="16"/><rect class="cls-5" x="156" y="283" width="16" height="16"/><rect class="cls-6" x="182" y="283" width="16" height="16"/><rect class="cls-7" x="208" y="283" width="16" height="16"/><g id="items"><rect class="cls-8" x="82" y="30" width="431" height="238" rx="4" ry="4"/><rect class="cls-9" x="86" y="58" width="423" height="206" rx="4" ry="4"/><path class="cls-10" d="M90,44H505a4,4,0,0,1,4,4V62a0,0,0,0,1,0,0H86a0,0,0,0,1,0,0V48A4,4,0,0,1,90,44Z"/><rect class="cls-11" x="91" y="67.28" width="58.96" height="6.41" rx="2.5" ry="2.5"/><rect class="cls-12" x="114.07" y="77.54" width="52.55" height="6.41" rx="2.5" ry="2.5"/><rect class="cls-13" x="86" y="34" width="46" height="5" rx="2.5" ry="2.5"/><rect class="cls-13" x="136" y="34" width="26" height="5" rx="2.5" ry="2.5"/><rect class="cls-14" x="260.07" y="163.54" width="39.93" height="6.41" rx="2.5" ry="2.5"/><rect class="cls-14" x="167" y="163.54" width="54" height="6.41" rx="2.5" ry="2.5"/><rect class="cls-14" x="224" y="163.54" width="33" height="6.41" rx="2.5" ry="2.5"/><rect class="cls-14" x="184" y="184.54" width="39.93" height="6.41" rx="2.5" ry="2.5" transform="translate(390.93 364.48) rotate(180)"/><rect class="cls-15" x="227" y="184.54" width="54" height="6.41" rx="2.5" ry="2.5" transform="translate(491 364.48) rotate(180)"/><rect class="cls-5" x="284" y="184.54" width="33" height="6.41" rx="2.5" ry="2.5" transform="translate(584 364.48) rotate(180)"/><rect class="cls-14" x="260.07" y="184.54" width="39.93" height="6.41" rx="2.5" ry="2.5"/><rect class="cls-16" x="167" y="184.54" width="90" height="6.41" rx="2.5" ry="2.5"/><rect class="cls-14" x="184" y="205.54" width="39.93" height="6.41" rx="2.5" ry="2.5" transform="translate(390.93 406.48) rotate(180)"/><rect class="cls-17" x="227" y="205.54" width="19" height="6.41" rx="2.5" ry="2.5" transform="translate(456 406.48) rotate(180)"/><rect class="cls-17" x="250" y="205.54" width="34" height="6.41" rx="2.5" ry="2.5" transform="translate(517 406.48) rotate(180)"/><rect class="cls-18" x="288" y="205.54" width="29" height="6.41" rx="2.5" ry="2.5" transform="translate(588 406.48) rotate(180)"/><rect class="cls-14" x="260.07" y="210.54" width="39.93" height="6.41" rx="2.5" ry="2.5"/><rect class="cls-15" x="167" y="210.54" width="90" height="6.41" rx="2.5" ry="2.5"/><rect class="cls-19" x="184" y="231.54" width="39.93" height="6.41" rx="2.5" ry="2.5" transform="translate(390.93 458.48) rotate(180)"/><rect class="cls-20" x="227" y="231.54" width="61" height="6.41" rx="2.5" ry="2.5" transform="translate(498 458.48) rotate(180)"/><rect class="cls-20" x="292" y="231.54" width="25" height="6.41" rx="2.5" ry="2.5" transform="translate(592 458.48) rotate(180)"/><rect class="cls-14" x="260.07" y="231.54" width="39.93" height="6.41" rx="2.5" ry="2.5"/><rect class="cls-14" x="167" y="231.54" width="36" height="6.41" rx="2.5" ry="2.5"/><rect class="cls-21" x="206" y="231.54" width="51" height="6.41" rx="2.5" ry="2.5"/><rect class="cls-14" x="184" y="252.54" width="39.93" height="6.41" rx="2.5" ry="2.5" transform="translate(390.93 500.48) rotate(180)"/><rect class="cls-22" x="227" y="252.54" width="90" height="6.41" rx="2.5" ry="2.5" transform="translate(527 500.48) rotate(180)"/><rect class="cls-14" x="324" y="252.54" width="39.93" height="6.41" rx="2.5" ry="2.5" transform="translate(670.93 500.48) rotate(-180)"/><rect class="cls-14" x="403" y="252.54" width="54" height="6.41" rx="2.5" ry="2.5" transform="translate(843 500.48) rotate(-180)"/><rect class="cls-14" x="367" y="252.54" width="33" height="6.41" rx="2.5" ry="2.5" transform="translate(750 500.48) rotate(-180)"/><rect class="cls-14" x="400.07" y="231.54" width="39.93" height="6.41" rx="2.5" ry="2.5"/><rect class="cls-15" x="343" y="231.54" width="54" height="6.41" rx="2.5" ry="2.5"/><rect class="cls-5" x="307" y="231.54" width="33" height="6.41" rx="2.5" ry="2.5"/><rect class="cls-14" x="324" y="231.54" width="39.93" height="6.41" rx="2.5" ry="2.5" transform="translate(670.93 458.48) rotate(-180)"/><rect class="cls-16" x="367" y="231.54" width="90" height="6.41" rx="2.5" ry="2.5" transform="translate(807 458.48) rotate(-180)"/><rect class="cls-14" x="400.07" y="210.54" width="39.93" height="6.41" rx="2.5" ry="2.5"/><rect class="cls-17" x="378" y="210.54" width="19" height="6.41" rx="2.5" ry="2.5"/><rect class="cls-17" x="340" y="210.54" width="34" height="6.41" rx="2.5" ry="2.5"/><rect class="cls-18" x="307" y="210.54" width="29" height="6.41" rx="2.5" ry="2.5"/><rect class="cls-14" x="324" y="205.54" width="39.93" height="6.41" rx="2.5" ry="2.5" transform="translate(670.93 406.48) rotate(-180)"/><rect class="cls-15" x="367" y="205.54" width="90" height="6.41" rx="2.5" ry="2.5" transform="translate(807 406.48) rotate(-180)"/><rect class="cls-19" x="400.07" y="184.54" width="39.93" height="6.41" rx="2.5" ry="2.5"/><rect class="cls-20" x="336" y="184.54" width="61" height="6.41" rx="2.5" ry="2.5"/><rect class="cls-20" x="307" y="184.54" width="25" height="6.41" rx="2.5" ry="2.5"/><rect class="cls-14" x="324" y="184.54" width="39.93" height="6.41" rx="2.5" ry="2.5" transform="translate(670.93 364.48) rotate(-180)"/><rect class="cls-14" x="421" y="184.54" width="36" height="6.41" rx="2.5" ry="2.5" transform="translate(861 364.48) rotate(-180)"/><rect class="cls-21" x="367" y="184.54" width="51" height="6.41" rx="2.5" ry="2.5" transform="translate(768 364.48) rotate(-180)"/><rect class="cls-14" x="400.07" y="163.54" width="39.93" height="6.41" rx="2.5" ry="2.5"/><rect class="cls-22" x="307" y="163.54" width="90" height="6.41" rx="2.5" ry="2.5"/><circle class="cls-23" cx="173.03" cy="68.56" r="2.56"/><circle class="cls-24" cx="173.03" cy="81.38" r="2.56"/><circle class="cls-23" cx="179.44" cy="74.97" r="2.56"/><circle class="cls-25" cx="504.5" cy="36.5" r="4.5"/><circle class="cls-26" cx="492.5" cy="36.5" r="4.5"/><circle class="cls-27" cx="480.5" cy="36.5" r="4.5"/><circle class="cls-28" cx="432" cy="75" r="9"/><rect class="cls-16" x="446" y="72" width="42" height="6" rx="3" ry="3"/><rect class="cls-18" x="204" y="72" width="32" height="6" rx="3" ry="3"/><rect class="cls-18" x="323" y="72" width="39" height="6" rx="3" ry="3"/><rect class="cls-18" x="377" y="72" width="24" height="6" rx="3" ry="3"/><rect class="cls-18" x="288" y="72" width="21" height="6" rx="3" ry="3"/><rect class="cls-18" x="249" y="72" width="37" height="6" rx="3" ry="3"/><rect class="cls-29" x="164" y="94" width="279" height="60"/><rect class="cls-30" x="94" y="47" width="11" height="11"/><rect class="cls-30" x="115.82" y="47" width="11" height="11"/><rect class="cls-30" x="137.64" y="47" width="11" height="11"/><rect class="cls-30" x="159.45" y="47" width="11" height="11"/><rect class="cls-30" x="181.27" y="47" width="11" height="11"/><rect class="cls-30" x="203.09" y="47" width="11" height="11"/><rect class="cls-30" x="224.91" y="47" width="11" height="11"/><rect class="cls-30" x="246.73" y="47" width="11" height="11"/><rect class="cls-30" x="268.55" y="47" width="11" height="11"/><rect class="cls-30" x="290.36" y="47" width="11" height="11"/><rect class="cls-30" x="312.18" y="47" width="11" height="11"/><rect class="cls-30" x="334" y="47" width="11" height="11"/><rect class="cls-30" x="417" y="47" width="88" height="11" rx="5" ry="5"/></g></g><g id="mobile"><rect class="cls-31" y="214" width="127" height="226" rx="9" ry="9"/><rect class="cls-32" x="2.78" y="231" width="121.44" height="175" rx="9" ry="9"/><path class="cls-33" d="M11.78,226.25H115.22a9,9,0,0,1,9,9V239a0,0,0,0,1,0,0H2.78a0,0,0,0,1,0,0v-3.75A9,9,0,0,1,11.78,226.25Z"/><path class="cls-34" d="M2.78,396H124.22a0,0,0,0,1,0,0v9.44a9,9,0,0,1-9,9H11.78a9,9,0,0,1-9-9V396a0,0,0,0,1,0,0Z"/><circle class="cls-35" cx="63.5" cy="427.5" r="9.5"/><rect class="cls-35" x="44" y="217" width="38" height="6" rx="3" ry="3"/><rect class="cls-36" x="14" y="399" width="13" height="13" rx="2" ry="2"/><rect class="cls-37" x="35.75" y="399" width="13" height="13" rx="2" ry="2"/><rect class="cls-38" x="57.5" y="399" width="13" height="13" rx="2" ry="2"/><rect class="cls-7" x="79.25" y="399" width="13" height="13" rx="2" ry="2"/><rect class="cls-39" x="101" y="399" width="13" height="13" rx="2" ry="2"/><g id="items-2" data-name="items"><rect class="cls-40" x="6" y="244.28" width="21" height="6.41" rx="2.5" ry="2.5"/><rect class="cls-41" x="103" y="250.28" width="19" height="6.41" rx="2.5" ry="2.5"/><rect class="cls-42" x="12" y="252.28" width="26" height="6.41" rx="2.5" ry="2.5"/><rect class="cls-43" x="55.07" y="256" width="11.68" height="2" rx="1" ry="1"/><rect class="cls-43" x="55.07" y="252" width="11.68" height="2" rx="1" ry="1"/><rect class="cls-43" x="55.07" y="248" width="11.68" height="2" rx="1" ry="1"/><rect class="cls-44" x="13" y="229" width="25" height="6"/><rect class="cls-44" x="79" y="229" width="36" height="6"/><circle class="cls-28" cx="91" cy="253" r="9"/><rect class="cls-29" x="8" y="267" width="110" height="37"/><rect class="cls-14" x="84.98" y="310.54" width="33.02" height="5.3" rx="2.5" ry="2.5"/><rect class="cls-14" x="8" y="310.54" width="44.66" height="5.3" rx="2.5" ry="2.5"/><rect class="cls-14" x="55.14" y="310.54" width="27.29" height="5.3" rx="2.5" ry="2.5"/><rect class="cls-14" x="25" y="329.81" width="33.02" height="5.3" rx="2.5" ry="2.5" transform="translate(66.02 653.91) rotate(180)"/><rect class="cls-15" x="60.56" y="329.81" width="44.66" height="5.3" rx="2.5" ry="2.5" transform="translate(148.79 653.91) rotate(180)"/><rect class="cls-5" x="107.71" y="329.81" width="27.29" height="5.3" rx="2.5" ry="2.5" transform="translate(225.71 653.91) rotate(180)"/><rect class="cls-14" x="84.98" y="327.9" width="33.02" height="5.3" rx="2.5" ry="2.5"/><rect class="cls-16" x="8" y="327.9" width="74.44" height="5.3" rx="2.5" ry="2.5"/><rect class="cls-14" x="25" y="347.17" width="33.02" height="5.3" rx="2.5" ry="2.5" transform="translate(66.02 688.65) rotate(180)"/><rect class="cls-17" x="60.56" y="347.17" width="15.71" height="5.3" rx="2.5" ry="2.5" transform="translate(119.84 688.65) rotate(180)"/><rect class="cls-17" x="79.59" y="347.17" width="28.12" height="5.3" rx="2.5" ry="2.5" transform="translate(170.29 688.65) rotate(180)"/><rect class="cls-18" x="111.02" y="347.17" width="23.98" height="5.3" rx="2.5" ry="2.5" transform="translate(229.02 688.65) rotate(180)"/><rect class="cls-14" x="84.98" y="349.41" width="33.02" height="5.3" rx="2.5" ry="2.5"/><rect class="cls-15" x="8" y="349.41" width="74.44" height="5.3" rx="2.5" ry="2.5"/><rect class="cls-19" x="25" y="368.68" width="33.02" height="5.3" rx="2.5" ry="2.5" transform="translate(66.02 731.66) rotate(180)"/><rect class="cls-20" x="60.56" y="368.68" width="50.45" height="5.3" rx="2.5" ry="2.5" transform="translate(154.58 731.66) rotate(180)"/><rect class="cls-20" x="114.32" y="368.68" width="20.68" height="5.3" rx="2.5" ry="2.5" transform="translate(232.32 731.66) rotate(180)"/><rect class="cls-14" x="84.98" y="366.78" width="33.02" height="5.3" rx="2.5" ry="2.5"/><rect class="cls-14" x="8" y="366.78" width="29.77" height="5.3" rx="2.5" ry="2.5"/><rect class="cls-21" x="40.26" y="366.78" width="42.18" height="5.3" rx="2.5" ry="2.5"/><rect class="cls-14" x="25" y="386.05" width="33.02" height="5.3" rx="2.5" ry="2.5" transform="translate(66.02 766.39) rotate(180)"/><rect class="cls-22" x="60.56" y="386.05" width="74.44" height="5.3" rx="2.5" ry="2.5" transform="translate(178.56 766.39) rotate(180)"/></g></g><g id="tablet"><rect class="cls-31" x="253" y="193" width="356" height="246" rx="9" ry="9"/><rect class="cls-9" x="259.9" y="207" width="322.89" height="224" rx="9" ry="9"/><path class="cls-33" d="M269,201H574a9,9,0,0,1,9,9v5a0,0,0,0,1,0,0H260a0,0,0,0,1,0,0v-5A9,9,0,0,1,269,201Z"/><circle class="cls-35" cx="596.5" cy="315.5" r="9.5"/><rect class="cls-35" x="592" y="242" width="8" height="53" rx="4" ry="4"/><rect class="cls-45" x="272" y="204" width="31" height="7"/><rect class="cls-45" x="308" y="204" width="22" height="7"/><rect class="cls-45" x="535" y="204" width="37" height="7"/><rect class="cls-35" x="592" y="336" width="8" height="53" rx="4" ry="4"/><g id="items-3" data-name="items"><circle class="cls-23" cx="345.03" cy="224.56" r="2.56"/><circle class="cls-24" cx="345.03" cy="237.38" r="2.56"/><circle class="cls-23" cx="351.44" cy="230.97" r="2.56"/><rect class="cls-11" x="263" y="223.28" width="58.96" height="6.41" rx="2.5" ry="2.5"/><rect class="cls-12" x="286.07" y="233.54" width="52.55" height="6.41" rx="2.5" ry="2.5"/><rect class="cls-18" x="368" y="228" width="28.1" height="6" rx="3" ry="3"/><rect class="cls-18" x="472.5" y="228" width="34.25" height="6" rx="3" ry="3"/><rect class="cls-18" x="519.92" y="228" width="21.08" height="6" rx="3" ry="3"/><rect class="cls-18" x="441.77" y="228" width="18.44" height="6" rx="3" ry="3"/><rect class="cls-18" x="407.52" y="228" width="32.49" height="6" rx="3" ry="3"/><circle class="cls-28" cx="563" cy="231" r="9"/><rect class="cls-29" x="282" y="251" width="279" height="60"/><rect class="cls-14" x="378.07" y="322.54" width="39.93" height="6.41" rx="2.5" ry="2.5"/><rect class="cls-14" x="285" y="322.54" width="54" height="6.41" rx="2.5" ry="2.5"/><rect class="cls-14" x="342" y="322.54" width="33" height="6.41" rx="2.5" ry="2.5"/><rect class="cls-14" x="302" y="343.54" width="39.93" height="6.41" rx="2.5" ry="2.5" transform="translate(626.93 682.48) rotate(180)"/><rect class="cls-15" x="345" y="343.54" width="54" height="6.41" rx="2.5" ry="2.5" transform="translate(727 682.48) rotate(180)"/><rect class="cls-5" x="402" y="343.54" width="33" height="6.41" rx="2.5" ry="2.5" transform="translate(820 682.48) rotate(180)"/><rect class="cls-14" x="378.07" y="343.54" width="39.93" height="6.41" rx="2.5" ry="2.5"/><rect class="cls-16" x="285" y="343.54" width="90" height="6.41" rx="2.5" ry="2.5"/><rect class="cls-14" x="302" y="364.54" width="39.93" height="6.41" rx="2.5" ry="2.5" transform="translate(626.93 724.48) rotate(180)"/><rect class="cls-17" x="345" y="364.54" width="19" height="6.41" rx="2.5" ry="2.5" transform="translate(692 724.48) rotate(180)"/><rect class="cls-17" x="368" y="364.54" width="34" height="6.41" rx="2.5" ry="2.5" transform="translate(753 724.48) rotate(180)"/><rect class="cls-18" x="406" y="364.54" width="29" height="6.41" rx="2.5" ry="2.5" transform="translate(824 724.48) rotate(180)"/><rect class="cls-14" x="378.07" y="369.54" width="39.93" height="6.41" rx="2.5" ry="2.5"/><rect class="cls-15" x="285" y="369.54" width="90" height="6.41" rx="2.5" ry="2.5"/><rect class="cls-19" x="302" y="390.54" width="39.93" height="6.41" rx="2.5" ry="2.5" transform="translate(626.93 776.48) rotate(180)"/><rect class="cls-20" x="345" y="390.54" width="61" height="6.41" rx="2.5" ry="2.5" transform="translate(734 776.48) rotate(180)"/><rect class="cls-20" x="410" y="390.54" width="25" height="6.41" rx="2.5" ry="2.5" transform="translate(828 776.48) rotate(180)"/><rect class="cls-14" x="378.07" y="390.54" width="39.93" height="6.41" rx="2.5" ry="2.5"/><rect class="cls-14" x="285" y="390.54" width="36" height="6.41" rx="2.5" ry="2.5"/><rect class="cls-21" x="324" y="390.54" width="51" height="6.41" rx="2.5" ry="2.5"/><rect class="cls-14" x="302" y="411.54" width="39.93" height="6.41" rx="2.5" ry="2.5" transform="translate(626.93 818.48) rotate(180)"/><rect class="cls-22" x="345" y="411.54" width="90" height="6.41" rx="2.5" ry="2.5" transform="translate(763 818.48) rotate(180)"/><rect class="cls-14" x="442" y="411.54" width="39.93" height="6.41" rx="2.5" ry="2.5" transform="translate(906.93 818.48) rotate(-180)"/><rect class="cls-14" x="521" y="411.54" width="54" height="6.41" rx="2.5" ry="2.5" transform="translate(1079 818.48) rotate(-180)"/><rect class="cls-14" x="485" y="411.54" width="33" height="6.41" rx="2.5" ry="2.5" transform="translate(986 818.48) rotate(-180)"/><rect class="cls-14" x="518.07" y="390.54" width="39.93" height="6.41" rx="2.5" ry="2.5"/><rect class="cls-15" x="461" y="390.54" width="54" height="6.41" rx="2.5" ry="2.5"/><rect class="cls-5" x="425" y="390.54" width="33" height="6.41" rx="2.5" ry="2.5"/><rect class="cls-14" x="442" y="390.54" width="39.93" height="6.41" rx="2.5" ry="2.5" transform="translate(906.93 776.48) rotate(-180)"/><rect class="cls-16" x="485" y="390.54" width="90" height="6.41" rx="2.5" ry="2.5" transform="translate(1043 776.48) rotate(-180)"/><rect class="cls-14" x="518.07" y="369.54" width="39.93" height="6.41" rx="2.5" ry="2.5"/><rect class="cls-17" x="496" y="369.54" width="19" height="6.41" rx="2.5" ry="2.5"/><rect class="cls-17" x="458" y="369.54" width="34" height="6.41" rx="2.5" ry="2.5"/><rect class="cls-18" x="425" y="369.54" width="29" height="6.41" rx="2.5" ry="2.5"/><rect class="cls-14" x="442" y="364.54" width="39.93" height="6.41" rx="2.5" ry="2.5" transform="translate(906.93 724.48) rotate(-180)"/><rect class="cls-15" x="485" y="364.54" width="90" height="6.41" rx="2.5" ry="2.5" transform="translate(1043 724.48) rotate(-180)"/><rect class="cls-19" x="518.07" y="343.54" width="39.93" height="6.41" rx="2.5" ry="2.5"/><rect class="cls-20" x="454" y="343.54" width="61" height="6.41" rx="2.5" ry="2.5"/><rect class="cls-20" x="425" y="343.54" width="25" height="6.41" rx="2.5" ry="2.5"/><rect class="cls-14" x="442" y="343.54" width="39.93" height="6.41" rx="2.5" ry="2.5" transform="translate(906.93 682.48) rotate(-180)"/><rect class="cls-14" x="539" y="343.54" width="36" height="6.41" rx="2.5" ry="2.5" transform="translate(1097 682.48) rotate(-180)"/><rect class="cls-21" x="485" y="343.54" width="51" height="6.41" rx="2.5" ry="2.5" transform="translate(1004 682.48) rotate(-180)"/><rect class="cls-14" x="518.07" y="322.54" width="39.93" height="6.41" rx="2.5" ry="2.5"/><rect class="cls-22" x="425" y="322.54" width="90" height="6.41" rx="2.5" ry="2.5"/></g></g></svg>