<svg xmlns="http://www.w3.org/2000/svg" viewBox="0 0 199.54 50"><defs><style>.cls-1{fill:#ff4d1d;}.cls-2{fill:#1a1c1c;}</style></defs><title>programming_ants</title><g id="objects"><polygon class="cls-1" points="55.16 50 50.48 50 21.34 0 26.01 0 55.16 50"/><g id="dots"><circle class="cls-2" cx="176.95" cy="7.91" r="4.95"/><circle class="cls-2" cx="194.59" cy="25.56" r="4.95"/><circle class="cls-1" cx="176.95" cy="41.05" r="4.95"/></g></g><g id="text"><g id="Prog"><path class="cls-1" d="M28.24,20a2.69,2.69,0,0,1-.16.29,6.9,6.9,0,0,1-3.26,2.54q-2.09.81-8.24.81H10.87V9h5c2.62,0,4.61.06,6,.18L16.73.28H.44V30.13L10.87,48.19V32.44h6.8a59.76,59.76,0,0,0,10.81-.74,15.2,15.2,0,0,0,5.21-2.32Z"/><rect class="cls-1" width="11" height="49"/></g><g id="Ants"><polygon class="cls-1" points="44.75 22.16 48.74 11.18 55.31 28.87 48.66 28.87 53.34 36.91 58.4 36.91 62.57 47.74 73.04 47.74 53.95 0.06 43.77 0.06 39 12.3 44.75 22.16"/><path class="cls-2" d="M104.84,47.8h-8V32.41a23.76,23.76,0,0,0-.51-6.31,4.45,4.45,0,0,0-1.66-2.23,4.76,4.76,0,0,0-2.77-.8,6.39,6.39,0,0,0-3.72,1.14,5.7,5.7,0,0,0-2.26,3,25.91,25.91,0,0,0-.61,6.93V47.8h-8V17.65h7.41v4.43A12.07,12.07,0,0,1,94.7,17a11.9,11.9,0,0,1,4.83,1,8,8,0,0,1,3.31,2.43,9,9,0,0,1,1.56,3.35,25.07,25.07,0,0,1,.44,5.36Z"/><path class="cls-2" d="M125.43,17.65V24H120V36.16a28.89,28.89,0,0,0,.16,4.3,1.71,1.71,0,0,0,.71,1,2.23,2.23,0,0,0,1.35.4,10.39,10.39,0,0,0,3.2-.77l.69,6.19a15.81,15.81,0,0,1-6.31,1.19,10.06,10.06,0,0,1-3.89-.72,5.73,5.73,0,0,1-2.54-1.87,7.47,7.47,0,0,1-1.12-3.11,38.5,38.5,0,0,1-.26-5.62V24h-3.66V17.65H112v-6L120,7V17.65Z"/><path class="cls-2" d="M129.83,39.2l8-1.22a5.85,5.85,0,0,0,2.07,3.53,7,7,0,0,0,4.38,1.21,7.85,7.85,0,0,0,4.65-1.14A2.52,2.52,0,0,0,150,39.46a2.1,2.1,0,0,0-.57-1.51,6.23,6.23,0,0,0-2.66-1.05Q137.1,34.77,134.52,33a7.76,7.76,0,0,1-3.58-6.79A8.36,8.36,0,0,1,134,19.64q3.1-2.67,9.6-2.67,6.19,0,9.2,2A10.32,10.32,0,0,1,157,25l-7.53,1.39a4.61,4.61,0,0,0-1.83-2.7,6.66,6.66,0,0,0-3.85-.94,8.72,8.72,0,0,0-4.51.88,1.89,1.89,0,0,0-.91,1.62,1.77,1.77,0,0,0,.8,1.45q1.08.8,7.45,2.24t8.9,3.55a7.37,7.37,0,0,1,2.5,5.94,9.08,9.08,0,0,1-3.46,7.12q-3.47,3-10.25,3-6.16,0-9.76-2.49A11.56,11.56,0,0,1,129.83,39.2Z"/></g></g></svg>