<svg xmlns="http://www.w3.org/2000/svg" viewBox="0 0 30 50"><defs><style>.cls-1{fill:#303030;}.cls-2{fill:#fff;}</style></defs><title>sldr_arw</title><g id="slider"><g id="right-2" data-name="right"><path class="cls-1" d="M1.82,48.69a4.52,4.52,0,0,0,6.37,0l20.29-20.3A4.47,4.47,0,0,0,29.78,25,4.43,4.43,0,0,0,28.5,21.7L8.09,1.3a4.44,4.44,0,0,0-7,5.36l15,15A4.43,4.43,0,0,1,17.43,25a4.44,4.44,0,0,1-1.3,3.36L1,43.58A4.5,4.5,0,0,0,1.82,48.69Zm15.1-30.44L4,5.34A1.49,1.49,0,0,1,4,3.22a1.51,1.51,0,0,1,2.12,0L19.05,16.13a1.5,1.5,0,0,1-2.13,2.12ZM4,44.89l5-5A1.5,1.5,0,0,1,11.16,42l-5,5A1.5,1.5,0,1,1,4,44.89Z"/><path class="cls-2" d="M4,5.34A1.49,1.49,0,0,1,4,3.22a1.51,1.51,0,0,1,2.12,0L19.05,16.13a1.5,1.5,0,0,1-2.13,2.12Z"/><path class="cls-2" d="M9,39.87A1.5,1.5,0,0,1,11.16,42l-5,5A1.5,1.5,0,1,1,4,44.89Z"/></g></g></svg>