<svg xmlns="http://www.w3.org/2000/svg" viewBox="0 0 30 50"><defs><style>.cls-1{fill:#303030;}.cls-2{fill:#fff;}</style></defs><title>sldr_arw</title><g id="slider"><g id="left"><path class="cls-1" d="M29.35,43.58,14.16,28.39A4.51,4.51,0,0,1,12.86,25a4.47,4.47,0,0,1,1.28-3.33l15-15A4.46,4.46,0,0,0,28.5,1.3a4.47,4.47,0,0,0-6.3,0L1.8,21.7A4.43,4.43,0,0,0,.52,25a4.47,4.47,0,0,0,1.29,3.36l20.3,20.3a4.49,4.49,0,0,0,7.24-5.11ZM11.25,18.25a1.49,1.49,0,0,1,0-2.12L24.16,3.22a1.5,1.5,0,0,1,2.12,2.12L13.37,18.25A1.49,1.49,0,0,1,11.25,18.25ZM26.28,47a1.49,1.49,0,0,1-2.12,0l-5-5a1.51,1.51,0,0,1,0-2.12,1.49,1.49,0,0,1,2.12,0l5,5A1.51,1.51,0,0,1,26.28,47Z"/><path class="cls-2" d="M26.28,5.34a1.5,1.5,0,0,0-2.12-2.12L11.25,16.13a1.5,1.5,0,0,0,2.12,2.12Z"/><path class="cls-2" d="M21.25,39.87a1.49,1.49,0,0,0-2.12,0,1.51,1.51,0,0,0,0,2.12l5,5a1.49,1.49,0,0,0,2.12,0,1.51,1.51,0,0,0,0-2.12Z"/></g></g></svg>