<svg id="fond" xmlns="http://www.w3.org/2000/svg" viewBox="0 0 1443 400.5"><defs><style>.cls-1{fill:#fff;}.cls-2{fill:#a9d8b3;stroke:#a9d8b3;stroke-miterlimit:10;stroke-width:3px;}</style></defs><title>home_i_background</title><rect class="cls-1" x="1.5" width="1440" height="400"/><rect class="cls-2" x="721.5" y="360" width="680" height="39" rx="19.5"/><rect class="cls-2" x="835.5" y="126" width="529" height="39" rx="19.5"/><rect class="cls-2" x="206.5" y="204" width="1186" height="39" rx="19.5"/><rect class="cls-2" x="1.5" y="282" width="1440" height="39" rx="19.5"/><path class="cls-2" d="M1345.44,262.5h0c0-10.73,7.9-19.5,17.56-19.5H349c9.66,0,17.56,8.77,17.56,19.5h0c0,10.72-7.9,19.5-17.56,19.5H1363C1353.34,282,1345.44,273.22,1345.44,262.5Z" transform="translate(1.5 0)"/><path class="cls-2" d="M1321.15,340.5h0c0-10.73,7.13-19.5,15.85-19.5H868c8.72,0,15.85,8.77,15.85,19.5h0c0,10.72-7.13,19.5-15.85,19.5h469C1328.28,360,1321.15,351.22,1321.15,340.5Z" transform="translate(1.5 0)"/><path class="cls-2" d="M1247.09,184.5h0c0-10.73,5.81-19.5,12.91-19.5H915c7.1,0,12.91,8.77,12.91,19.5h0c0,10.72-5.81,19.5-12.91,19.5h345C1252.9,204,1247.09,195.22,1247.09,184.5Z" transform="translate(1.5 0)"/></svg>